<?xml version="1.0" encoding="UTF-8" standalone="no"?>
<!-- Created with Inkscape (http://www.inkscape.org/) -->

<svg
   version="1.1"
   id="svg1"
   
   
   viewBox="0 0 1207 864"
   sodipodi:docname="Lykon-Logo_2.svg"
   inkscape:version="1.4.4 (dcaf3e7, 2026-05-05)"
   xmlns:inkscape="http://www.inkscape.org/namespaces/inkscape"
   xmlns:sodipodi="http://sodipodi.sourceforge.net/DTD/sodipodi-0.dtd"
   xmlns="http://www.w3.org/2000/svg"
   xmlns:svg="http://www.w3.org/2000/svg">
  <defs
     id="defs1" />
  <sodipodi:namedview
     id="namedview1"
     pagecolor="#ffffff"
     bordercolor="#000000"
     borderopacity="0.25"
     inkscape:showpageshadow="2"
     inkscape:pageopacity="0.0"
     inkscape:pagecheckerboard="0"
     inkscape:deskcolor="#d1d1d1"
     inkscape:zoom="1.3506944"
     inkscape:cx="603.7635"
     inkscape:cy="432"
     inkscape:window-
     inkscape:window-
     inkscape:window-x="-8"
     inkscape:window-y="-8"
     inkscape:window-maximized="1"
     inkscape:current-layer="g1" />
  <g
     inkscape:groupmode="layer"
     inkscape:label="Image"
     id="g1">
    <path
       style="fill:currentColor"
       d="M 375.00819,734 H 385 l 0.23761,37.75 0.23761,37.75 0.27442,-37.7567 0.27442,-37.75671 70.73797,0.25671 70.73797,0.2567 0.51925,35.5 0.51926,35.5 0.23074,-35.75 L 529,734 l 24.75,0.0753 24.75,0.0753 9.5,12.09378 c 5.225,6.65157 13.2125,16.62572 17.75,22.16477 4.5375,5.53904 8.25,10.62231 8.25,11.29614 0,0.67382 -1.4625,2.88538 -3.25,4.91457 -6.8054,7.72555 -23.53833,28.89861 -23.15309,29.29683 0.2217,0.22916 0.55203,0.22916 0.73406,0 0.18204,-0.22917 5.91954,-7.3427 12.75,-15.80785 L 613.5,782.71763 l 0.26385,32.14119 c 0.14512,17.67765 0.59512,32.14118 1,32.14118 0.40488,0 0.67165,-14.625 0.59282,-32.5 -0.0788,-17.875 0.23607,-32.5 0.69979,-32.5 0.46372,0 6.60322,7.17741 13.64333,15.9498 7.04012,8.77238 13.15278,15.97238 13.5837,16 0.43092,0.0276 -4.74408,-6.76058 -11.5,-15.08487 -6.75592,-8.32429 -13.01048,-16.08679 -13.89903,-17.25 -1.56043,-2.04278 -1.08228,-2.76588 14.01621,-21.19652 8.59746,-10.49487 16.38835,-20.16987 17.31309,-21.5 1.58542,-2.28045 1.69788,0.74773 1.97128,53.08159 l 0.28995,55.5 0.5125,-56.5 0.51251,-56.5 24.25,-0.26778 24.25,-0.26778 0.23696,35.76778 0.23697,35.76778 0.27566,-35.75 0.27567,-35.75 H 773.51263 845 l 0.24165,57.25 0.24164,57.25 0.26655,-57.25 0.26654,-57.25 H 855.00819 864 l 0.24165,57.25 0.24164,57.25 0.26655,-57.25 0.26654,-57.25 84.74181,0.0324 84.74181,0.0324 24.2611,33.21764 c 20.7782,28.44898 30.5749,41.4306 28.1224,37.26485 -0.7844,-1.33231 -40.749,-56.12442 -46.5409,-63.80839 -2.3884,-3.16864 -4.3426,-5.97121 -4.3426,-6.22793 0,-0.25672 8.4375,-0.59975 18.75,-0.76228 10.3125,-0.16253 -28.1625,-0.39746 -85.5,-0.52206 L 865,733 v -81.98922 -81.98922 l 6.25,3.80793 c 10.4879,6.38994 26.3222,15.17181 27.31368,15.14845 0.51498,-0.0121 -1.53868,-1.42745 -4.56368,-3.14515 -3.025,-1.71769 -10.7875,-6.24716 -17.25,-10.06549 L 865,567.82489 v -32.13467 c 0,-31.21002 0.0527,-32.07792 1.8331,-30.16244 1.9593,2.10798 6.96856,8.90476 54.14945,73.47222 59.93017,82.01495 65.08829,89 65.72213,89 0.29298,0 -0.56833,-1.4625 -1.91402,-3.25 -1.3457,-1.7875 -8.48661,-11.55941 -15.86869,-21.71535 -45.02806,-61.9476 -80.4386,-110.35928 -92.62038,-126.62637 L 865,501.31655 V 480.65828 460 l 108.75,-0.24333 108.75,-0.24333 -108.66362,-0.50667 -108.66362,-0.50667 4.16362,-5.51359 c 2.28999,-3.03247 11.75177,-15.74497 21.02617,-28.25 L 907.22511,402 l 7.33358,0 7.33358,0 11.83128,14.75 c 6.50721,8.1125 12.5961,15.84785 13.53087,17.18967 0.93477,1.34181 1.90638,2.23287 2.15913,1.98011 0.25275,-0.25275 -5.3619,-7.76489 -12.477,-16.69365 C 929.82145,410.29737 924,402.77154 924,402.50207 c 0,-0.26948 35.4375,-0.60795 78.75,-0.75216 l 78.75,-0.2622 -79.6336,-0.24386 L 922.23272,401 l -3.69067,-4.08514 c -2.02988,-2.24683 -3.46422,-4.6753 -3.18743,-5.39661 0.40836,-1.06415 12.01791,-17.04147 34.34639,-47.26825 l 2.40077,-3.25 64.69912,-0.24247 64.6991,-0.24246 -63.75,-0.26494 C 982.6875,340.10442 954,339.71132 954,339.37657 c 0,-0.80422 0.39243,-1.34382 51.9095,-71.37657 73.9737,-100.5605 92.9823,-126.34907 95.6379,-129.75 l 2.5379,-3.25 33.2073,-0.22942 33.2074,-0.22943 -32.685,-0.52057 -32.6851,-0.52058 15.0085,-20.5 c 8.2547,-11.275 22.0931,-30.175 30.7521,-42 16.456,-22.472895 19.6259,-27 18.9054,-27 -0.2387,0 -15.253,20.243324 -33.365,44.985164 L 1103.5,133.97033 974.75,133.98516 846,134 V 108.2328 82.465597 L 879,55 C 897.15,39.893922 912,27.150332 912,26.680913 912,25.770066 908.93733,28.259248 871.31211,59.75 858.005,70.8875 846.86596,80 846.55868,80 c -0.30727,0 -0.65707,-8.6625 -0.77732,-19.25 L 845.56272,41.5 845.03136,61.738349 844.5,81.976699 834.05347,90.458491 c -5.74558,4.664985 -10.55687,8.371444 -10.69174,8.236574 -0.13487,-0.13487 -0.32945,-12.721433 -0.4324,-27.970141 C 822.82637,55.476216 822.35016,43 821.87107,43 c -0.47909,0 -0.882,13.1625 -0.89535,29.25 l -0.0243,29.25 -19.59132,16.25863 -19.59132,16.25863 -53.55817,-0.25863 L 674.65246,133.5 663.39237,116 c -6.19306,-9.625 -19.67698,-30.690383 -29.96427,-46.811963 -10.2873,-16.12158 -19.02403,-28.94658 -19.41496,-28.5 C 613.62221,41.134617 601.91731,59.275 588.00224,81 c -13.91507,21.725 -27.24902,42.5375 -29.63101,46.25 l -4.33089,6.75 -52.42009,0 -52.4201,0 -15.86855,-13.25 c -8.7277,-7.2875 -17.34809,-14.40626 -19.15642,-15.81947 l -3.28787,-2.56947 0.0824,-29.680532 C 411.0244,53.003412 410.70636,43 410.02609,43 409.34854,43 409,52.722069 409,71.621972 c 0,27.856233 -0.0504,28.585268 -1.88456,27.25 -1.03651,-0.754585 -5.98651,-4.703212 -11,-8.774728 L 387,82.694489 386.875,63.347244 c -0.14011,-21.685443 -0.10011,-20.905684 -1.125,-21.930577 -0.4125,-0.4125 -0.75,8.1 -0.75,18.916666 C 385,71.15 384.72087,80 384.37972,80 c -0.34115,0 -4.95365,-3.723173 -10.25,-8.273718 C 365.07992,63.950825 358.05679,58.090463 330,34.902817 318.58048,25.465113 313.66541,21.866418 317.5,25.750635 c 1.1,1.114236 14.6,12.507479 30,25.31832 15.4,12.81084 30.13728,25.123623 32.74951,27.361741 L 384.99902,82.5 384.99951,108.25 385,134 l -129.25,-0.007 -129.25,-0.007 -2.23678,-3.28575 C 121.05355,125.98568 64.36719,48.989775 61.904484,46 l -2.059273,-2.5 1.760224,3 c 1.55717,2.653928 24.698376,34.302084 53.568105,73.2603 5.40455,7.29317 9.82646,13.47498 9.82646,13.73737 0,0.26239 -16.0875,0.60112 -35.75,0.75274 l -35.75,0.27566 36.075686,0.23697 c 35.998984,0.23646 36.080024,0.24174 38.114014,2.48696 1.12108,1.2375 9.84126,12.825 19.37818,25.75 9.53691,12.925 29.46484,39.925 44.28428,60 14.81944,20.075 31.0402,42.06962 36.04614,48.87694 5.00593,6.80732 18.2142,24.71776 29.3517,39.80098 11.1375,15.08323 20.25,27.62277 20.25,27.86566 0,0.24289 -28.6875,0.56084 -63.75,0.70655 l -63.75,0.26494 64.58048,0.24246 64.58048,0.24247 3.37251,4.75 c 1.85489,2.6125 10.25617,14.05994 18.66952,25.43875 C 309.11635,382.56757 316,392.15646 316,392.49739 c 0,0.34094 -1.42531,2.3935 -3.16736,4.56125 L 309.66527,401 l -80.08263,0.24389 -80.08264,0.24389 79.29426,0.26214 79.29426,0.26214 -7.84124,9.74397 C 287.9336,427.05772 281.31052,436 282.29106,436 c 0.22501,0 3.95995,-4.6125 8.29986,-10.25 4.33992,-5.6375 10.50345,-13.2875 13.69674,-17 l 5.80597,-6.75 h 6.85511 l 6.8551,0 13.01299,17.75 c 7.15714,9.7625 16.20127,21.99049 20.09808,27.17332 3.8968,5.18282 7.08509,10.02032 7.08509,10.75 0,1.09247 -18.93388,1.37001 -107.25,1.57213 l -107.25,0.24545 107.25,0.25905 107.25,0.25906 -0.0247,4.24549 c -0.0228,3.90628 -1.42722,6.16315 -17.57727,28.2455 -9.65388,13.2 -23.29994,31.875 -30.32457,41.5 -7.02463,9.625 -17.87202,24.475 -24.10531,33 -6.2333,8.525 -20.84139,28.55 -32.46244,44.5 -11.62105,15.95 -24.74149,33.95 -29.15654,40 -12.22149,16.7473 -52.64359,72.56872 -55.21508,76.25 -1.24862,1.7875 -2.05255,3.25 -1.7865,3.25 0.26605,0 14.46499,-19.2375 31.55321,-42.75 C 221.98897,664.7375 245.33681,632.675 256.78483,617 328.39939,518.94309 331.21389,515.0965 353.25,485.16068 L 364,470.55692 v 49.65442 49.65442 l -8.25,4.95478 c -4.5375,2.72513 -11.55862,6.60922 -15.60248,8.6313 -4.04387,2.02209 -7.09077,3.93825 -6.77088,4.25813 0.31988,0.31989 7.14442,-3.084 15.16564,-7.56418 C 356.5635,575.66561 363.3229,572 363.56316,572 363.80342,572 364,608.225 364,652.5 V 733 l -115.75,0.22656 c -63.6625,0.1246 -107.3125,0.35953 -97,0.52206 10.3125,0.16253 18.75,0.59408 18.75,0.95899 0,0.36492 -0.82952,1.59249 -1.84338,2.72794 C 167.14277,738.571 156.05357,753.675 143.51397,771 c -12.5396,17.325 -23.47983,32.2875 -24.31161,33.25 -0.83178,0.9625 -1.10509,1.72825 -0.60735,1.70167 0.49775,-0.0266 12.60499,-16.21591 26.90499,-35.97629 l 26,-35.92797 96.25,-0.0237 L 364,734 l 0.24165,57.25 0.24164,57.25 0.26655,-57.25 0.26654,-57.25 z M 615.249,756.33367 615.5,734.5 l 17.84115,-0.27345 c 10.83761,-0.1661 17.70723,0.0957 17.5,0.66698 -0.54316,1.49731 -33.98449,42.57045 -34.9614,42.94014 -0.49697,0.18806 -0.77221,-9.1942 -0.63075,-21.5 z M 597.5,756.78429 C 588.7,745.74835 581.3545,736.10718 581.17668,735.35947 580.91404,734.25519 583.96436,734 597.42668,734 H 614 v 21.5 c 0,11.825 -0.1125,21.46617 -0.25,21.42482 -0.1375,-0.0413 -7.45,-9.10459 -16.25,-20.14053 z M 365.24412,651.76751 365.5,570.53502 377.96846,562.2434 c 18.78332,-12.49106 23.46323,-16.46195 26.43888,-22.4333 3.19839,-6.41833 3.20044,-7.31548 0.0479,-21.00428 -1.3996,-6.07734 -2.39056,-11.20388 -2.20213,-11.3923 0.18842,-0.18842 2.68623,2.90395 5.55069,6.87195 4.63404,6.41929 4.987,7.24975 3.20213,7.53408 -1.10328,0.17575 -2.00597,0.73287 -2.00597,1.23804 0,1.89373 6.30543,20.50826 9.56457,28.23597 5.51305,13.07196 7.46614,15.23773 18.70576,20.74273 11.21609,5.49347 17.72232,10.66605 26.16549,20.80202 3.24072,3.89048 6.38091,7.25095 6.9782,7.46771 1.18081,0.42853 17.19925,-1.13037 19.50044,-1.89778 0.92252,-0.30764 -1.77798,-3.45063 -7.76471,-9.03699 -10.20938,-9.52662 -13.2698,-14.03282 -15.53315,-22.87125 -1.97012,-7.69333 -5.02922,-10.47408 -15.27699,-13.8869 -4.34672,-1.44759 -9.53543,-3.74116 -11.53047,-5.09682 -4.64612,-3.15712 -9.2085,-12.17164 -10.87235,-21.482 -0.6914,-3.86886 -1.52253,-7.02725 -1.84694,-7.01866 -0.32442,0.009 -3.28614,0.6498 -6.5816,1.42492 -3.29547,0.77511 -6.01897,1.33058 -6.05224,1.23437 -0.0333,-0.0962 -3.05113,-4.24527 -6.70635,-9.22016 -5.99981,-8.16595 -6.74822,-9.72134 -7.69884,-16 -1.76447,-11.65408 -3.21595,-15.567 -8.23355,-22.19616 C 387.43665,468.47098 385.69854,464 387.82921,464 c 0.45606,0 3.23866,1.6875 6.18356,3.75 3.65284,2.55832 6.10817,5.26507 7.72651,8.51768 2.24815,4.51843 2.48133,4.69121 4.46033,3.30506 4.10702,-2.87667 5.78686,-6.73943 5.7938,-13.32274 L 412,460 h 13.20821 13.20821 l -4.07471,4.25 c -20.74261,21.63493 -24.13667,36.82258 -9.06812,40.57767 3.87528,0.96573 27.72641,0.49595 27.72641,-0.5461 0,-0.23167 -1.28842,-2.3023 -2.86315,-4.60139 C 442.38054,488.35605 440.76098,480.34134 443.73514,468 l 1.80744,-7.5 7.72871,-0.29206 L 461,459.91587 v 5.47697 c 0,3.01233 0.43922,6.63221 0.97605,8.04418 0.53683,1.41196 8.52611,10.55376 17.75395,20.31509 21.68614,22.9399 26.36461,28.3838 36.13348,42.04515 10.10579,14.13253 17.94362,28.72043 22.48894,41.85678 3.44544,9.95761 9.04301,34.35652 8.44894,36.82759 -0.17425,0.72483 -3.99191,-1.70867 -9.05136,-5.76963 l -8.75,-7.02318 -0.0304,-16.09441 c -0.0219,-11.60367 -0.31976,-15.59728 -1.06741,-14.31274 -0.57036,0.97992 -0.95686,2.77992 -0.8589,4 0.0979,1.22008 0.12829,7.28727 0.0674,13.48264 L 527,600.02861 l -7.01631,-5.25062 c -5.01503,-3.75297 -6.82557,-5.68236 -6.34761,-6.7643 4.12862,-9.34581 -4.02127,-21.24427 -22.28338,-32.53267 -15.6196,-9.65498 -19.04551,-13.82223 -23.34853,-28.40087 C 465.26226,517.79052 461.87032,514 456.29943,514 c -7.31283,0 -11.44856,6.03362 -9.38029,13.68491 1.64849,6.09839 3.79696,8.23448 12.44527,12.37355 11.49125,5.4997 17.1306,11.39297 19.56078,20.44154 1.40886,5.24576 1.81844,5.72164 6.82481,7.92947 2.3375,1.03086 4.25,2.16064 4.25,2.51064 0,0.35 2.1375,2.3523 4.75,4.44955 l 4.75,3.81319 -4.21128,-4.10142 C 492.97252,572.84564 491.3146,571 491.60446,571 c 1.41587,0 5.27223,2.59655 8.64554,5.82118 4.02292,3.84561 5.23796,6.7486 1.5,3.58381 L 499.5,578.5 l 1.91054,2.25613 c 1.05079,1.24087 2.1408,2.02586 2.42225,1.74442 0.28144,-0.28144 1.78097,1.4033 3.3323,3.74387 1.55132,2.34057 3.47409,4.26107 4.27282,4.26778 0.79873,0.007 4.57025,2.38263 8.38116,5.27984 5.85018,4.44754 7.02468,5.84683 7.54393,8.9878 0.93785,5.67315 0.7548,63.22016 -0.2011,63.22016 -0.46095,0 -12.49845,-14.79052 -26.75,-32.86783 -14.25154,-18.07731 -26.0804,-32.7213 -26.28635,-32.54221 -0.43174,0.37542 2.85942,4.63312 30.29929,39.19759 11.04134,13.90816 20.95712,26.73316 22.03507,28.5 1.07795,1.76685 2.29546,3.35579 2.70558,3.53098 0.41011,0.17519 6.60867,7.68181 13.77457,16.68139 7.1659,8.99957 13.59839,16.71364 14.29442,17.14236 1.34953,0.83125 -4.01313,-6.12222 -18.96546,-24.59145 L 529,671.60165 V 637.26148 602.9213 l 7.97125,6.17883 c 4.38418,3.39836 8.64477,6.92308 9.46797,7.83271 1.83542,2.02811 3.68408,14.0837 7.06417,46.06716 2.64728,25.0494 4.75755,36.51392 8.44138,45.85988 1.14586,2.90706 1.78251,5.77237 1.41479,6.36735 -0.36772,0.59498 -0.21338,0.80046 0.34297,0.45662 0.55635,-0.34385 2.20179,1.49912 3.65653,4.09549 1.45474,2.59636 4.28465,6.52066 6.28868,8.72066 2.00404,2.2 3.02338,3.1 2.26521,2 -1.36373,-1.9786 -1.35459,-1.97962 0.85428,-0.095 1.22802,1.04774 2.23277,2.06024 2.23277,2.25 C 579,732.84474 567.75,733 554,733 H 529 L 528.77348,704.25 528.54696,675.5 528.02348,704 527.5,732.5 H 457 386.5 l -0.0434,-85.21006 c -0.0239,-46.86553 -0.36136,-85.52803 -0.75,-85.91666 C 385.31798,560.98464 385,599.44167 385,646.83333 V 733 H 374.99412 364.98824 Z M 561,711.62244 c 0,-0.20765 -0.7875,-0.99515 -1.75,-1.75 -1.58606,-1.24387 -1.62143,-1.2085 -0.37756,0.37756 1.30637,1.66575 2.12756,2.19548 2.12756,1.37244 z m 22.22348,9.99202 c 0.36759,-8.32978 1.0089,-12.42272 2.38948,-15.25 1.85725,-3.80346 1.97386,-3.8635 7.38704,-3.80362 4.15518,0.046 7.4561,0.96838 13.5,3.77249 l 8,3.71167 -0.31054,11.4775 L 613.87892,733 h -15.57894 -15.57895 z m 32.7403,10.63554 c -0.0199,-0.4125 -0.23691,-5.30096 -0.48219,-10.86324 l -0.44597,-10.11324 9.23219,-4.33542 c 7.27454,-3.41611 10.39844,-4.34631 14.73219,-4.38676 5.43845,-0.0508 5.52176,-0.007 7.44464,3.93369 1.46097,2.99387 2.05189,6.78687 2.37584,15.25 L 649.25167,733 h -16.62583 c -9.14421,0 -16.64214,-0.3375 -16.66206,-0.75 z m 44.15299,-6.5 c 3.37176,-3.9875 6.66736,-8.49499 7.32354,-10.01665 0.65618,-1.52166 1.57269,-2.42166 2.0367,-2 0.464,0.42166 0.54016,0.23687 0.16924,-0.41063 -0.37092,-0.6475 0.17851,-3.3475 1.22094,-6 3.28208,-8.35133 5.05594,-18.89953 8.63079,-51.32272 1.91018,-17.325 3.93231,-33.975 4.49362,-37 5.2388,-28.23276 9.8866,-45.20188 15.05958,-54.98248 l 1.86043,-3.51752 0.0442,22.13829 0.0442,22.1383 -7.7425,5.6117 C 688.99913,613.47473 685.89687,616 686.3636,616 c 0.46672,0 2.48835,-1.26784 4.4925,-2.81742 2.00414,-1.54959 5.1023,-3.82731 6.88478,-5.06161 l 3.24089,-2.24418 -0.005,63.56161 -0.005,63.5616 h -23.49291 -23.49291 z m 25.85355,-32.31811 c 7.82474,-9.66246 14.04244,-17.75247 13.81711,-17.9778 -0.22534,-0.22533 -5.35809,5.76782 -11.40613,13.31811 C 674.28646,706.36801 670.72438,711 671.28773,711 c 0.25068,0 6.85785,-7.90565 14.68259,-17.56811 z m 16.69635,38.90144 c -0.36667,-0.36666 -0.66261,-13.75416 -0.65764,-29.75 l 0.009,-29.08333 6.31223,-8 c 32.08028,-40.65792 41.71075,-52.86894 45.94003,-58.25 2.70173,-3.4375 4.65752,-6.25 4.3462,-6.25 -0.57373,0 -5.1131,5.63314 -37.06828,46 -9.79629,12.375 -18.20222,22.9275 -18.67984,23.45 C 702.37555,670.98916 702,657.08925 702,638.30874 v -33.09126 l 8.99967,-7.10874 C 715.94949,594.19893 720.39781,591 720.88483,591 c 0.48702,0 3.06246,-3.38157 5.7232,-7.5146 4.4005,-6.83547 8.85756,-10.99961 13.69391,-12.79395 1.19995,-0.4452 1.56986,-0.29303 1.10725,0.45548 -0.38207,0.61821 0.60706,0.22756 2.19807,-0.8681 1.59101,-1.09567 4.1231,-2.73732 5.62686,-3.64813 1.50377,-0.9108 3.03065,-2.88781 3.39306,-4.39335 2.35738,-9.79305 9.42875,-17.49048 20.84901,-22.69485 4.27654,-1.94888 8.05713,-4.42682 9.03802,-5.92384 3.96922,-6.0578 3.58431,-15.03539 -0.77558,-18.08918 C 780.53763,514.68827 777.8205,514 775.70057,514 c -5.25249,0 -9.03657,3.89783 -11.26356,11.60217 -2.50422,8.66338 -6.17867,16.51121 -9.24135,19.73749 -1.48261,1.56181 -7.19566,5.59501 -12.69566,8.96265 -19.10598,11.69858 -28.80981,24.64475 -24.50359,32.69099 0.54803,1.024 0.74676,2.45691 0.44163,3.18426 C 717.87275,591.525 703.70177,603 702.60303,603 702.27136,603 702,592.98084 702,580.73519 c 0,-25.44624 -0.66126,-22.95822 10.57337,-39.78241 8.6296,-12.92309 19.0347,-25.30927 38.39275,-45.70254 8.9452,-9.42357 16.97035,-18.14223 17.83367,-19.37479 0.86332,-1.23257 1.82405,-5.19627 2.13494,-8.80824 L 771.5,460.5 h 7.38962 7.38963 l 1.45258,4.5 c 0.79893,2.475 1.50729,8.325 1.57415,13 0.12972,9.07072 -1.45328,13.56563 -7.72941,21.94757 -1.41978,1.89617 -2.23072,3.79828 -1.80208,4.22692 0.42865,0.42865 6.84224,0.89664 14.25243,1.03999 17.9362,0.34698 21.98696,-1.66311 21.96331,-10.89874 -0.018,-7.01524 -6.63154,-17.862 -18.33194,-30.06574 L 793.58358,460 h 13.14487 l 13.14487,0 -0.18038,6.49158 c -0.17734,6.38272 -0.10999,6.56196 4.01646,10.68841 l 4.19683,4.19683 1.07179,-2.81901 c 1.77085,-4.65768 4.76657,-8.20016 9.6953,-11.46482 2.56826,-1.70114 5.04242,-3.09299 5.49812,-3.09299 2.05899,0 0.49984,4.62145 -2.78627,8.25879 -4.99374,5.52746 -8.057,12.81132 -9.33819,22.20441 -0.59739,4.37976 -1.63984,8.71938 -2.31657,9.6436 -0.67673,0.92422 -3.70541,5.11393 -6.73041,9.31047 l -5.5,7.63007 -4.24931,-0.50445 c -2.33712,-0.27744 -5.32222,-0.77372 -6.63356,-1.10285 -2.26439,-0.56832 -2.44204,-0.25512 -3.53405,6.23078 -1.56459,9.2928 -6.24078,18.68472 -10.86881,21.82955 -2.00791,1.36441 -7.20716,3.66514 -11.55388,5.11273 -10.24777,3.41282 -13.30687,6.19357 -15.27699,13.8869 -2.25995,8.82513 -5.32265,13.34358 -15.45003,22.79369 -5.00283,4.66825 -8.6616,8.75624 -8.13061,9.08441 0.53099,0.32817 5.40509,0.85858 10.83134,1.17869 l 9.8659,0.58203 6.5,-7.73381 c 8.40853,-10.0046 14.36416,-14.66065 25.78312,-20.157 6.07226,-2.92279 10.14222,-5.59464 11.76693,-7.72474 4.10494,-5.38186 13.9045,-29.53832 15.93199,-39.27327 0.59184,-2.84173 0.41565,-3.25 -1.40258,-3.25 C 819.93575,522 819,521.74088 819,521.42418 c 0,-0.3167 2.3625,-3.96322 5.25,-8.10339 3.14762,-4.51312 5.37527,-6.90735 5.56281,-5.97878 0.17205,0.85184 -0.84045,6.33439 -2.25,12.18344 C 826.15326,525.37451 825,531.16072 825,532.3837 c 0,4.71374 5.15292,12.73714 11.19239,17.42721 7.26688,5.64324 15.12502,10.30229 12.51857,7.4222 -1.54931,-1.71197 -1.70951,-5.33165 -1.69565,-38.31185 0.008,-20.03169 0.38927,-37.01093 0.84633,-37.73163 0.58427,-0.92129 3.10358,1.88524 8.48469,9.45195 L 864,501.40391 v 32.29804 C 864,551.46588 863.6381,566 863.19578,566 c -0.44232,0 -2.80482,-1.26127 -5.25,-2.80283 -6.38512,-4.02549 -7.79924,-4.66999 -4.94578,-2.25408 1.375,1.16416 4.4125,3.27097 6.75,4.6818 l 4.25,2.56515 V 650.59502 733 h -8.99454 -8.99454 l -0.26099,-87.75 -0.261,-87.75 -0.24446,87.75 L 845,733 h -70.83333 c -38.95834,0 -71.13334,-0.3 -71.5,-0.66667 z M 734.56291,577.75 737.5,574.5 l -3.25,2.93709 C 731.22054,580.17487 730.54035,581 731.31291,581 c 0.1721,0 1.6346,-1.4625 3.25,-3.25 z M 575.36832,722.81186 C 565.28937,712.15303 561.57314,699.87634 558.01966,665.5 c -4.13957,-40.04605 -9.47382,-71.10616 -15.09135,-87.87337 -1.64087,-4.89766 -5.3335,-13.45474 -8.20585,-19.01573 -5.20728,-10.08151 -5.22391,-10.1436 -5.72246,-21.36129 -0.57653,-12.97227 -0.90581,-13.02437 7.90239,1.25039 15.39667,24.9522 23.36157,51.36275 29.55489,98 6.3301,47.66732 6.98052,51.73077 8.36537,52.26218 1.92849,0.74004 2.83411,-1.12076 4.23089,-8.69327 0.66641,-3.6129 1.39022,-6.88486 1.60848,-7.27102 0.21825,-0.38616 2.93629,0.82765 6.04009,2.69735 3.1038,1.86971 10.51556,5.50544 16.47058,8.0794 L 614,688.25458 v 8.03937 c 0,9.83894 0.80215,9.86386 1.08918,0.0338 l 0.20803,-7.1244 12.1873,-5.118 c 6.70302,-2.8149 14.73586,-6.65266 17.85075,-8.52835 6.446,-3.88158 5.41502,-4.77639 7.99964,6.94296 1.05316,4.7753 1.71282,6 3.23182,6 2.22268,0 1.86811,1.88967 6.94252,-37 8.10136,-62.08788 15.44953,-87.91221 32.84988,-115.44729 L 700.5,529.5 l 0.28336,10.70356 0.28336,10.70355 -4.59902,9.15721 C 686.07798,580.75148 680.19948,607.5768 675.00609,658 c -3.43521,33.3528 -5.45273,44.093 -9.9227,52.8232 C 662.81864,715.24646 654.94474,726 653.97074,726 c -0.38133,0 -0.91829,-3.94551 -1.19325,-8.76779 -0.54557,-9.56851 -3.0705,-16.24829 -6.92068,-18.30884 -3.85972,-2.06566 -12.77492,-0.62402 -21.5204,3.47998 l -8.11563,3.80843 -8.36039,-3.79408 c -9.79202,-4.44378 -18.3621,-5.62944 -22.2547,-3.07891 -3.32227,2.17683 -5.57142,8.67213 -6.4032,18.49174 L 578.5,726.12372 Z M 615.74795,572.2501 615.9959,460.5 621.49795,460.2001 627,459.90019 v 12.04991 c 0,6.62744 0.27138,12.0499 0.60307,12.0499 0.33169,0 2.91919,-2.08506 5.75,-4.63346 5.86494,-5.27983 16.56696,-12.63429 24.64693,-16.93742 l 5.5,-2.92912 19,0.5 c 22.16275,0.58323 22.45144,-0.91656 -2.5,12.98783 -26.10182,14.54545 -35.78119,22.94153 -42.09287,36.51217 -1.56414,3.36304 -3.2409,9.33153 -3.8152,13.58037 -0.56354,4.16921 -1.53412,35.1765 -2.15684,68.90509 -0.94684,51.28332 -0.91141,61.45248 0.21634,62.10503 5.51468,3.19092 17.32771,11.62922 17.61241,12.58091 0.48176,1.61041 -11.26797,8.42165 -22.92921,13.29191 -5.31596,2.22018 -10.04096,4.03673 -10.5,4.03679 -0.45905,5e-5 -0.72305,-50.28745 -0.58668,-111.75 z m -12.01643,107.21373 c -4.27266,-1.86846 -10.91413,-5.23435 -14.75882,-7.47977 -8.55517,-4.99649 -8.44979,-5.39721 3.41713,-12.99374 l 8.57668,-5.49032 0.0184,-8.5 c 0.0565,-26.1564 -2.18671,-116.55239 -3.03989,-122.5 -1.26318,-8.80589 -6.23366,-19.31766 -12.40645,-26.23771 -5.7581,-6.45515 -20.16699,-16.18389 -40.44691,-27.30934 L 529.68324,460.5 l 20.36357,-0.27136 20.36358,-0.27136 10.19763,6.20303 c 5.6087,3.41167 13.27886,8.89814 17.04481,12.19217 l 6.84717,5.98913 0.28078,-12.1708 L 605.06156,460 H 609.53078 614 v 111.5 c 0,88.57039 -0.25706,111.48571 -1.25,111.43051 -0.6875,-0.0382 -4.74581,-1.59822 -9.01848,-3.46668 z M 574.14824,663.71125 C 571.64122,641.45003 566.85886,610.21546 563.85745,596.5 557.9344,569.43365 549.75391,549.73565 535.92387,529.2381 L 529,518.97621 v -19.48155 -19.48155 l 7.25,4.62776 c 10.2032,6.51283 22.40321,16.18709 28.06994,22.25869 9.78811,10.48743 12.38293,20.3751 13.67272,52.10044 1.41429,34.78809 1.21181,95.85302 -0.35234,106.25475 -0.72406,4.81511 -1.52191,8.96017 -1.77299,9.21125 -0.25108,0.25108 -1.02467,-4.58856 -1.71909,-10.75475 z M 655.72383,673.5 c -2.52468,-7.90116 -2.98319,-22.38621 -2.35818,-74.5 0.35949,-29.975 1.10191,-57.65 1.64982,-61.5 3.14573,-22.10404 9.98634,-31.42314 36.65924,-49.9416 L 701,481.08403 v 20.25951 20.25951 l -6.27175,9.51262 C 675.41512,560.40871 667.71051,586.49374 659.61395,650 c -1.78808,14.025 -3.53863,24.6 -3.89012,23.5 z m -72.64262,-58.42888 c -0.20858,-69.70048 -1.64333,-87.19426 -8.2862,-101.03263 -3.29126,-6.85632 -16.72455,-19.42805 -32.06479,-30.00828 L 529,474.56042 v -4.22119 c 0,-2.32166 -0.49848,-4.52928 -1.10774,-4.90582 -0.76837,-0.47488 -0.96175,0.57932 -0.63119,3.44098 0.2621,2.26909 0.11507,4.12561 -0.32675,4.12561 -0.44181,0 -4.32028,-2.8125 -8.61881,-6.25 L 510.5,460.5 515,459.9434 c 3.38227,-0.41834 5.36934,-0.0691 8,1.40595 1.925,1.07939 12.275,6.87682 23,12.88317 22.89988,12.82467 32.74505,19.99246 39.21216,28.54845 7.82727,10.35547 8.78904,14.99544 9.78752,47.21903 0.46866,15.125 0.99796,44.13988 1.17622,64.47752 l 0.3241,36.97752 -5,3.32791 c -2.75,1.83035 -5.73901,3.74284 -6.64224,4.24999 -1.51143,0.84864 -1.65293,-2.65298 -1.77655,-43.96182 z m 58.64099,40.39757 -6.77779,-4.54811 0.59304,-34.21029 c 1.26756,-73.12068 2.16476,-93.59809 4.41931,-100.8648 4.65549,-15.00524 15.24446,-24.61696 45.04324,-40.88623 6.325,-3.45327 12.5125,-6.93356 13.75,-7.73397 2.22757,-1.4408 2.25,-1.40537 2.25,3.55379 v 5.00909 l -11.49015,8.11953 c -28.53519,20.16445 -35.23177,29.41496 -38.5515,53.25424 -0.69383,4.9825 -1.42214,31.38104 -1.80973,65.59646 L 648.5,660.01679 Z M 469.55672,593.44622 c -6.51083,-9.93679 -18.34236,-19.52049 -31.73102,-25.70259 -6.00928,-2.77474 -8.18953,-4.37885 -10.04906,-7.39359 -5.77203,-9.3578 -14.59032,-33.51 -12.50505,-34.24976 0.61972,-0.21985 2.27463,1.10718 3.67758,2.94895 3.05011,4.00413 7.69267,9.07716 6.36097,6.95077 -0.51668,-0.825 -2.42708,-3.43325 -4.24533,-5.79611 -1.81825,-2.36287 -3.13824,-4.46379 -2.93331,-4.66872 0.20493,-0.20493 1.58959,-0.67805 3.07703,-1.05137 2.38245,-0.59796 2.78224,-0.33976 3.35795,2.16871 2.15497,9.38966 4.88137,16.35474 7.88812,20.15168 1.87464,2.36731 3.77675,4.32805 4.22692,4.35722 0.45016,0.0292 2.39348,0.84277 4.31848,1.80802 1.925,0.96525 6.47174,2.73181 10.10386,3.92568 3.63213,1.19388 7.34492,2.71838 8.25064,3.38779 0.90573,0.6694 2.47578,4.21751 3.489,7.88467 2.27295,8.22651 6.53795,15.01156 13.6849,21.77084 3.00938,2.84615 5.4716,5.37434 5.4716,5.6182 0,0.24387 -2.42325,0.44339 -5.38499,0.44339 -4.67075,0 -5.60693,-0.33872 -7.05829,-2.55378 z M 453.81023,573.75 c -1.33493,-1.7875 -5.51291,-7.41293 -9.28439,-12.50096 -3.77149,-5.08803 -7.05358,-9.05463 -7.29354,-8.81467 -0.51683,0.51683 -0.0737,1.14293 10.16762,14.36581 4.34495,5.6099 8.11086,10.19982 8.36869,10.19982 0.25782,0 -0.62345,-1.4625 -1.95838,-3.25 z m 297.00475,21.73164 c -0.2851,-0.28509 2.54275,-3.63459 6.2841,-7.44333 7.54424,-7.68012 9.98409,-11.76619 12.28341,-20.57127 0.85409,-3.27064 2.30818,-6.4989 3.23133,-7.17393 0.92315,-0.67502 4.65019,-2.20412 8.28232,-3.398 3.63212,-1.19387 8.32647,-3.03573 10.43188,-4.09302 l 3.82802,-1.92234 -7.20764,9.31012 c -3.96421,5.12057 -11.75375,15.27263 -17.31011,22.56013 L 760.53583,596 h -4.60125 c -2.53068,0 -4.83451,-0.23326 -5.1196,-0.51836 z M 507.69849,579.12058 c -3.7004,-5.59169 -9.61376,-10.23134 -16.73918,-13.13366 -5.70162,-2.32237 -6.30709,-2.87471 -7.97875,-7.27852 l -1.80892,-4.76544 3.66418,2.19506 c 12.85604,7.70154 24.48535,18.30914 25.7955,23.52919 0.97452,3.8828 -0.1389,3.67528 -2.93283,-0.54663 z M 721.59895,581 c 2.1022,-8.03073 10.19195,-15.61208 28.10948,-26.34292 0.70247,-0.42071 0.35014,1.34155 -0.84151,4.20897 -1.90963,4.59508 -2.46276,5.08322 -8.08144,7.13189 -5.90976,2.15481 -13.73402,8.63289 -18.11956,15.00206 l -1.7214,2.5 z m 56.53524,-6.58164 c 10.40083,-13.11153 23.88293,-31.36184 25.03352,-33.8871 0.63433,-1.39219 1.55765,-2.53126 2.05182,-2.53126 0.49418,0 0.62919,-0.43575 0.30004,-0.96834 -0.56246,-0.91008 1.81433,-11.69889 2.79285,-12.67742 0.24837,-0.24836 1.59935,-0.1635 3.00219,0.18859 l 2.5506,0.64016 -3.53309,5.1585 c -3.23202,4.71892 -2.75726,4.35617 2.73726,-2.09149 1.62438,-1.90616 4.93062,-3.14453 4.93062,-1.84678 0,0.22177 -1.60873,5.02499 -3.57496,10.67381 -3.74037,10.74583 -9.53097,23.1586 -12.22962,26.21556 -0.87036,0.98592 -5.3917,3.57765 -10.04742,5.75939 -4.65572,2.18175 -10.30613,5.4569 -12.55647,7.27811 -6.90834,5.59097 -7.15365,5.26918 -1.45734,-1.91173 z M 365,519.02383 c 0,-44.42954 0.18263,-50.37292 1.61501,-52.55901 0.88826,-1.35565 1.96408,-2.46482 2.39071,-2.46482 0.42664,0 4.00751,4.34584 7.95749,9.65741 l 7.18178,9.65742 0.52951,36.59258 0.5295,36.59259 -8.852,5.62369 c -4.8686,3.09304 -9.4145,5.93209 -10.102,6.30902 -0.99249,0.54414 -1.25,-9.63468 -1.25,-49.40888 z m 23.77972,1.78666 c -0.15384,-16.12077 -0.13134,-29.66307 0.05,-30.094 0.18135,-0.43092 1.27088,0.46908 2.42117,2 4.59506,6.11559 4.10717,3.5505 -0.60195,-3.16477 -1.30273,-1.8577 -2.12354,-4.71444 -2.219,-7.72297 -0.30885,-9.73326 4.73017,0.0613 7.11612,13.83187 0.84235,4.86166 2.88497,14.91301 4.53917,22.33634 1.66392,7.46701 2.7363,14.61523 2.40033,16 -0.94881,3.91065 -4.92674,9.39239 -9.3688,12.91056 l -4.05731,3.21345 z m 448.65946,24.79248 c -2.77918,-2.43116 -5.89947,-6.2973 -6.93397,-8.59142 -1.86128,-4.12759 -1.85751,-4.27206 0.36192,-13.84134 1.23356,-5.31861 2.94085,-13.25854 3.79398,-17.64429 1.00771,-5.18041 2.58841,-9.5597 4.51186,-12.5 l 2.96072,-4.52592 -3.12929,3.5 -3.12928,3.5 0.65225,-3 c 1.67029,-7.68241 4.93913,-15.5 6.48115,-15.5 0.50058,0 0.1842,70.22604 -0.32555,72.26163 -0.1049,0.4189 -2.4646,-1.2275 -5.24379,-3.65866 z m -134.87813,-7.71502 c 0.24033,-5.71337 0.43741,-10.67078 0.43796,-11.01645 0.003,-1.73475 13.75404,-18.16336 27.76505,-33.1708 16.70319,-17.89107 21.51133,-24.11605 22.95825,-29.72352 0.89066,-3.4517 0.9426,-3.47936 7.08746,-3.7749 L 767,459.90457 l -0.004,5.29771 c -0.002,3.4589 -0.65845,6.33901 -1.88999,8.29772 -1.03745,1.65 -9.31322,10.7429 -18.39062,20.20645 -17.56625,18.31352 -29.37647,32.37722 -37.80298,45.01608 -2.85195,4.27761 -5.54608,8.17705 -5.98697,8.66542 -0.44088,0.48838 -0.60497,-3.78662 -0.36465,-9.5 z M 522.3408,537.75 c -8.22345,-12.38781 -20.1741,-26.53728 -37.70772,-44.64562 -9.2768,-9.58088 -17.4893,-18.90936 -18.25,-20.72996 C 465.62239,470.55382 465,467.00331 465,464.4844 v -4.57983 l 6.10442,0.29771 6.10442,0.29772 1.72225,4.54797 c 2.61148,6.89619 5.38008,10.45248 21.51424,27.63517 8.16842,8.69927 17.37235,18.92829 20.45317,22.73115 l 5.6015,6.91428 0.5,11.33781 c 0.275,6.23579 0.42206,11.33686 0.3268,11.33571 -0.0953,-0.001 -2.33897,-3.26459 -4.986,-7.25209 z m 242.05012,0.82896 c 0.24396,-0.59343 1.66417,-4.67896 3.15601,-9.07896 3.18404,-9.39087 4.75855,-11.5 8.585,-11.5 5.56291,0 7.26147,6.59007 3.28373,12.74017 -1.48786,2.30043 -15.82242,9.77913 -15.02474,7.83879 z m -304.05059,-2.52217 c -3.38782,-1.56829 -6.88671,-3.96104 -7.77531,-5.31721 -1.99651,-3.04707 -2.32363,-9.12059 -0.60289,-11.19395 1.72185,-2.0747 6.35926,-1.96029 8.28364,0.20437 1.60804,1.80883 7.80965,19.28561 6.81454,19.20411 -0.30817,-0.0252 -3.33216,-1.32903 -6.71998,-2.89732 z M 702.03168,500.44686 702,480.39372 l 5.8663,-4.13703 c 3.22647,-2.27537 9.25606,-6.86395 13.39911,-10.19686 L 728.79821,460 h 10.6009 c 6.62052,0 10.60089,0.38753 10.60089,1.03212 0,2.34326 -3.27767,8.6042 -6.74845,12.89078 -2.03831,2.5174 -8.25029,9.3021 -13.8044,15.0771 -10.1164,10.51874 -21.03147,22.87589 -25.17406,28.5 l -2.20973,3 z M 521.39285,509.75 C 518.18502,505.7625 511.48248,498.225 506.49832,493 490.56504,476.2968 485.75495,470.66969 483.87787,466.53736 480.88834,459.95603 480.82926,460 492.66263,460 h 10.66263 l 7.08737,5.80766 c 3.89805,3.19421 9.22487,7.32049 11.83737,9.16952 l 4.75,3.36186 0.004,9.08048 c 0.002,4.99426 0.15323,13.69298 0.3351,19.33048 0.18187,5.6375 0.23057,10.25 0.10821,10.25 -0.12235,0 -2.84704,-3.2625 -6.05488,-7.25 z m -95.79288,-9.21781 c -2.14502,-0.76982 -4.27563,-1.99199 -4.73469,-2.71593 -2.92052,-4.6057 1.97824,-14.77412 12.6955,-26.3522 5.64992,-6.10373 6.3532,-6.59345 5.69275,-3.96406 -0.41444,1.65 -0.72618,6.91801 -0.69275,11.7067 0.0542,7.77003 0.40484,9.3738 3.25892,14.90775 1.75897,3.41058 3.08162,6.29445 2.93922,6.40861 -0.14241,0.11415 -3.63392,0.47783 -7.75892,0.80818 -5.24959,0.42041 -8.67022,0.18065 -11.40003,-0.79905 z m 367.08399,0.76237 c -3.19882,-0.21907 -5.67382,-0.71804 -5.5,-1.10881 0.17382,-0.39078 1.64063,-3.3625 3.25957,-6.60383 2.50574,-5.01682 2.95193,-7.09718 3,-13.98762 0.0311,-4.45187 -0.27142,-9.6693 -0.67218,-11.5943 l -0.72866,-3.5 5.64862,5.97923 c 12.85945,13.6121 17.73034,26.08423 11.49097,29.42314 -2.34078,1.25262 -9.59627,1.86487 -16.49832,1.39219 z M 859.41686,493 c -7.5436,-10.16127 -9.63412,-13.79624 -8.75467,-15.22255 0.4608,-0.74733 3.53781,-4.90755 6.83781,-9.24494 l 6,-7.88617 0.28684,9.72877 c 0.15776,5.35083 0.15776,13.8679 0,18.92683 L 863.5,498.5 Z M 381.76658,478.48593 c -0.95338,-1.27501 -4.19232,-5.74538 -7.19764,-9.93417 -5.00529,-6.97633 -5.55555,-7.4453 -6.55176,-5.58387 -1.45791,2.72413 -3.2408,2.58603 -2.81299,-0.21789 0.18881,-1.2375 0.89511,-2.1375 1.56955,-2 0.67444,0.1375 1.22626,-0.2 1.22626,-0.75 0,-0.55 -0.46114,-1 -1.02475,-1 -0.56361,0 -1.4289,-1.0125 -1.92285,-2.25 -0.49396,-1.2375 -9.47241,-13.725 -19.95211,-27.75 -10.4797,-14.025 -19.06442,-25.8375 -19.07715,-26.25 -0.0359,-1.16358 16.76091,-0.89786 17.15063,0.27132 0.18725,0.56173 3.71225,1.41384 7.83334,1.89358 4.12109,0.47974 8.78749,1.38072 10.36979,2.00217 l 2.87689,1.12992 -0.87689,7.2265 c -1.95832,16.13853 -0.33624,31.88547 4.21181,40.8876 2.15911,4.27362 2.77694,4.7516 7.4323,5.75 2.79259,0.5989 6.18291,1.08891 7.53405,1.08891 h 2.45661 l -0.64467,8.75 c -0.35456,4.8125 -0.69469,8.81843 -0.75583,8.90206 -0.0611,0.0836 -0.89121,-0.89113 -1.84459,-2.16613 z m 465.68802,-2.87622 c -0.37089,-1.97706 -0.41956,-4.25863 -0.10815,-5.07016 0.31141,-0.81152 0.1962,-1.70417 -0.25601,-1.98366 -0.45222,-0.27948 -0.61256,-1.60494 -0.3563,-2.94545 0.4115,-2.15263 1.15361,-2.5171 6.35412,-3.12068 3.62048,-0.4202 6.95184,-1.50237 8.64997,-2.80987 1.51897,-1.16955 2.26371,-1.46348 1.65498,-0.65318 -6.86933,9.14399 -14.71791,19.54515 -14.96004,19.82547 -0.16731,0.1937 -0.60767,-1.26541 -0.97857,-3.24247 z M 591.93373,468.6909 c -4.71145,-3.41627 -16.41145,-10.42179 -26,-15.56784 -37.43655,-20.09167 -36.36714,-19.42188 -37.05209,-23.20643 -0.374,-2.06647 -0.71718,-2.62629 -0.86842,-1.41663 -0.13753,1.1 -0.19677,2.3375 -0.13164,2.75 0.25085,1.5887 -1.84495,0.51771 -12.43429,-6.35413 -9.85082,-6.39259 -23.0255,-16.9244 -26.12868,-20.88721 -0.97478,-1.24482 -0.76392,-1.56325 1.20574,-1.82081 1.67318,-0.21879 5.76505,2.05897 13.68139,7.61583 6.21184,4.36039 15.11926,10.30117 19.79426,13.20172 4.675,2.90055 20.59111,13.15919 35.36914,22.79696 23.00132,15.00076 27.0031,17.28388 27.79969,15.86044 0.71765,-1.28237 2.40633,-1.6628 7.38086,-1.6628 H 601 v 7.5 c 0,4.125 -0.1125,7.47801 -0.25,7.45114 -0.1375,-0.0269 -4.10482,-2.84398 -8.81627,-6.26024 z m 39.27246,-0.9409 0.29381,-7.25 5.97208,-0.30653 c 4.69716,-0.24109 6.236,0.0544 7.20834,1.38415 1.41152,1.93038 -1.3879,3.54933 34.2851,-19.82762 11.5403,-7.5625 21.2476,-13.75 21.57178,-13.75 0.32418,0 0.44841,1.45534 0.27606,3.23408 -0.28908,2.9835 -1.08815,3.64849 -10.31336,8.58279 -38.44878,20.56515 -51.68129,28.41101 -56.04017,33.22751 -2.95304,3.26308 -3.56038,2.27481 -3.25364,-5.29438 z m 70.98932,2.17821 c 0.29978,-5.12005 0.38182,-5.24183 5.30449,-7.87402 4.0561,-2.16883 5.84951,-2.56789 9.5,-2.11387 l 4.5,0.55968 -7.81504,6.24962 c -4.29827,3.4373 -8.71029,6.72875 -9.80449,7.31435 -1.88229,1.00737 -1.97305,0.78459 -1.68496,-4.13576 z M 405,473.27585 c 0,-1.82509 -7.11423,-8.29554 -11.8083,-10.73975 l -4.6917,-2.44298 9.14301,-0.0466 c 10.25605,-0.0522 10.35699,0.02 10.35699,7.41278 0,2.59851 -0.59265,4.78763 -1.5,5.54066 -0.825,0.68469 -1.5,0.80882 -1.5,0.27585 z m 420.16269,-0.57982 c -0.78083,-0.94084 -1.15491,-3.59444 -0.96776,-6.86485 L 824.5,460.5 l 9,-0.22956 9,-0.22956 -3.5,1.90764 c -4.03418,2.1988 -8.81778,6.49855 -11.03224,9.91633 -1.35,2.08359 -1.68362,2.18245 -2.80507,0.83118 z M 377.27416,458.27841 c -5.98609,-0.74509 -8.52491,-6.10928 -10.30752,-21.77841 -0.79312,-6.97161 -0.70513,-11.02839 0.39044,-18 1.21293,-7.71847 1.21493,-9.31855 0.014,-11.23714 -1.73531,-2.77229 -8.34868,-6.23911 -12.08124,-6.33315 -1.53441,-0.0387 -3.59318,-0.3876 -4.57503,-0.77542 -1.62704,-0.64268 -1.51773,-1.10893 1.23388,-5.26311 4.4312,-6.6899 13.93812,-17.17768 22.25398,-24.55 C 385.23796,360.55797 385,360.58463 385,369.13148 c 0,3.96102 0.3375,6.86435 0.75,6.45185 0.94121,-0.9412 0.97325,-1.19908 1.125,-9.0526 l 0.125,-6.46927 5.5514,-3.55119 c 3.05327,-1.95315 8.00327,-4.93494 11,-6.62619 l 5.4486,-3.075 -0.072,6.84546 -0.072,6.84546 -9.02155,5.93195 c -11.36127,7.47038 -23.11811,18.39103 -26.90268,24.98926 -1.60218,2.79333 -2.91728,5.42344 -2.92245,5.84467 -0.005,0.42124 1.39031,0.65924 3.10104,0.52888 1.95593,-0.14903 4.73968,-1.67114 7.5,-4.10087 L 385,389.83003 V 395.41501 401 l -11.75,0.21376 -11.75,0.21375 11.25,0.319 c 6.1875,0.17544 11.25,0.48403 11.25,0.68575 0,0.20172 -1.5603,2.68536 -3.46734,5.51921 -7.78383,11.56671 -7.39178,23.23532 0.97191,28.92743 L 385,439.2578 v 9.8711 c 0,11.01366 0.68961,10.19698 -7.72584,9.14951 z m 9.71715,-4.02841 c -0.005,-2.6125 -0.29404,-7.12579 -0.64279,-10.02954 l -0.6341,-5.27954 2.70789,1.02954 c 3.47318,1.3205 9.1656,1.32045 11.63308,-10e-5 2.80556,-1.50149 4.94461,-6.26858 4.94461,-11.01957 0,-5.51367 2.40933,-10.31491 7.00114,-13.95169 4.28421,-3.39316 19.84756,-11.95716 21.77559,-11.98239 0.99077,-0.013 1.21475,3.26769 1,14.64675 l -0.27673,14.66345 -6.01906,1.22663 C 413.02048,436.70425 407,442.28074 407,453.45034 V 459 H 397 387 Z M 411,453.95034 c 0,-2.77731 0.70701,-6.41686 1.57113,-8.08789 1.98379,-3.83623 9.76279,-7.52572 18.34084,-8.69884 3.45499,-0.4725 6.63078,-1.42377 7.05733,-2.11393 1.40056,-2.26615 2.08973,-13.78425 1.4064,-23.5053 L 438.7048,402 h 12.30509 12.30508 l -0.64523,17.25 c -0.35487,9.4875 -0.94449,22.3125 -1.31027,28.5 L 460.69442,459 h -7.34721 C 449.30625,459 446,458.82996 446,458.62212 c 0,-0.20783 0.68104,-2.00783 1.51342,-4 1.97661,-4.73069 0.46503,-4.59251 -4.13375,0.37788 l -3.70094,4 H 425.33937 411 Z M 465.3592,450.25 c 0.36095,-4.8125 0.94941,-17.65782 1.30769,-28.54515 l 0.65143,-19.79516 5.58239,0.29516 5.5824,0.29515 0.67452,4.74279 c 2.42558,17.0553 12.74817,31.45576 33.18261,46.29119 l 6.84025,4.96602 -5.19957,0.30605 c -6.16394,0.36282 -6.16467,0.36227 -17.05023,-12.65252 -8.10944,-9.69566 -14.69977,-19.93155 -16.99979,-26.40353 -0.73297,-2.0625 -1.62476,-3.75 -1.98175,-3.75 -1.10719,0 -2.03397,23.36763 -1.32614,33.4373 L 477.2952,459 h -6.29613 -6.29613 z m 16.30747,8.08333 C 481.3,457.96667 481,451.84039 481,444.71938 v -12.94729 l 4.04089,6.05128 c 3.53021,5.28653 6.0788,8.43408 15.325,18.92663 l 1.98274,2.25 h -10.00765 c -5.50421,0 -10.30765,-0.3 -10.67431,-0.66667 z m 36.71126,-5.55984 c -11.6324,-8.15835 -26.35086,-22.75288 -29.75487,-29.50433 -2.2119,-4.38705 -5.55562,-15.5075 -5.60828,-18.65184 -0.008,-0.48548 3.49557,2.47108 7.78599,6.57013 7.17353,6.85355 26.92626,20.96575 33.44923,23.89756 2.66218,1.19655 2.75216,1.49436 2.81749,9.32551 0.0371,4.44921 0.25833,9.55198 0.49158,11.33948 0.23325,1.7875 0.26045,3.25 0.0604,3.25 -0.20001,0 -4.35872,-2.80193 -9.24158,-6.22651 z M 529,448.40454 v -10.59546 l 5.75,3.24702 c 3.1625,1.78585 11.7125,6.3676 19,10.18166 7.2875,3.81406 13.25,7.12086 13.25,7.34844 0,0.22759 -8.55,0.4138 -19,0.4138 h -19 z m 59,-17.95226 v -28.54771 l 6.25,0.29771 6.25,0.29772 0.26557,28.25 0.26558,28.25 H 594.51557 588 Z M 605,430.5 V 402 h 4.5 4.5 v 28.5 28.5 h -4.5 -4.5 z m 11,0 V 402 h 5.5 5.5 v 28.5 28.5 h -5.5 -5.5 z m 15.23443,0.25 0.26557,-28.25 6.25,-0.29772 6.25,-0.29771 V 430.45228 459 h -6.51557 -6.51558 z M 665,458.58071 c 0,-0.23061 6.1875,-3.66915 13.75,-7.64121 7.5625,-3.97205 15.6625,-8.32613 18,-9.67573 L 701,438.80996 V 448.90498 459 h -18 c -9.9,0 -18,-0.18868 -18,-0.41929 z m 37.0214,-9.83071 0.0214,-10.25 8.6852,-5 c 11.70034,-6.73579 23.33877,-15.33567 31.61729,-23.36267 l 6.84529,-6.63733 -0.71473,4.5 c -1.8355,11.55648 -6.97449,20.41978 -17.80386,30.70663 C 722.82404,446.16141 705.5353,459 703.34446,459 c -1.03989,0 -1.33961,-2.32198 -1.32306,-10.25 z m 11.5286,9.39825 c 0.5225,-0.46846 4.325,-3.32398 8.45,-6.3456 9.95066,-7.28899 22.03719,-20.12273 25.30782,-26.8724 C 750.22404,418.91197 753,409.08993 753,404.7899 753,402.05499 753.11518,402 758.84351,402 h 5.84352 l 0.66008,18.75 c 0.36305,10.3125 0.94958,23.1375 1.30341,28.5 l 0.64333,9.75 h -6.15086 -6.15085 l 0.64416,-12.75 c 0.3543,-7.0125 0.31099,-16.74369 -0.0962,-21.62487 l -0.74041,-8.87487 -3.87986,7.15034 c -5.55751,10.24213 -10.60962,17.37201 -19.37931,27.3494 l -7.69086,8.75 h -5.62482 c -3.17408,0 -5.2109,-0.37111 -4.67481,-0.85175 z m 18.59927,-1.99043 c 1.2929,-1.6029 4.42334,-5.33165 6.95654,-8.28609 2.53319,-2.95445 6.19647,-7.71317 8.14062,-10.57494 l 3.53482,-5.2032 0.53699,5.2032 c 0.29534,2.86177 0.23206,8.80321 -0.14063,13.20321 l -0.67761,8 -10.35073,0.2861 -10.35072,0.28609 z M 770.02759,432.75 c -0.71592,-14.4375 -1.12207,-27.15 -0.90255,-28.25 0.36828,-1.84545 1.31629,-2.02186 12.26819,-2.28287 l 11.86907,-0.28287 -0.67814,9.78287 c -0.58709,8.46935 0.43305,22.63342 1.72305,23.92341 0.23536,0.23537 3.30003,0.88615 6.81036,1.44618 3.51034,0.56004 8.76046,2.10184 11.66694,3.42624 6.06244,2.76247 8.21549,6.41966 8.21549,13.95492 V 459 H 806.70295 792.4059 L 788.5,455 c -2.14824,-2.2 -4.24461,-4 -4.65859,-4 -0.41398,0 -0.11762,1.8 0.65859,4 l 1.41128,4 h -7.29101 -7.29101 z M 825,453.45034 c 0,-6.35934 -1.63224,-10.12166 -5.97735,-13.77783 -2.73077,-2.29779 -11.80797,-5.67075 -19.27265,-7.16144 L 797,431.9619 V 417.48095 C 797,408.25852 797.3722,403 798.02496,403 c 1.82984,0 15.34792,7.1482 20.1721,10.66677 6.007,4.38127 8.80294,8.90199 8.80294,14.23338 0,5.32968 2.20675,10.60495 5.07938,12.14233 1.38613,0.74184 4.29547,0.99222 7.58466,0.65275 L 845,440.14451 V 449.57225 459 h -10 -10 z m 21,-4.27113 v -10.05124 l 4.09804,-2.30323 c 5.12459,-2.88018 6.90805,-6.25659 6.88,-13.02508 -0.0235,-5.67468 -2.40984,-12.05486 -6.52834,-17.4545 -1.34734,-1.76644 -2.4497,-3.46674 -2.4497,-3.77844 0,-0.3117 5.0625,-0.55475 11.25,-0.54011 10.89184,0.0258 11.16487,0.0794 8.57599,1.68551 -4.37938,2.71688 -4.86962,5.04532 -3.14437,14.93451 1.26463,7.24884 1.344,10.48448 0.43796,17.85337 -2.16255,17.58824 -4.22859,20.99743 -13.36958,22.06126 L 846,459.23045 Z M 569.5,447.6226 c -6.6,-4.47106 -18.4125,-12.26994 -26.25,-17.33084 L 529,421.09013 V 411.54506 402 h 27 27 l 0.0488,19.25 c 0.0268,10.5875 0.25625,22.7375 0.50981,27 0.34793,5.84886 0.15198,7.71956 -0.79879,7.6259 -0.69289,-0.0682 -6.6598,-3.78224 -13.2598,-8.2533 z M 649,429.08333 V 402 h 26 26 l -0.0129,10.25 -0.0129,10.25 -7.23709,4.65608 c -3.98039,2.56085 -15.33708,9.98359 -25.23708,16.49498 -9.9,6.5114 -18.3375,11.99116 -18.75,12.17725 -0.4125,0.1861 -0.75,-11.84914 -0.75,-26.74498 z m 218.1646,19.78829 c 2.78973,-10.98522 3.27145,-19.02167 1.80454,-30.10479 -1.61525,-12.20389 -1.71557,-12.07908 11.1181,-13.83288 C 884.98926,404.26406 889,403.32987 889,402.85798 889,402.38609 892.6,402 897,402 c 4.4,0 7.98736,0.3375 7.97191,0.75 -0.0223,0.5963 -37.54765,51.15907 -39.17735,52.78877 -0.2382,0.2382 0.37832,-2.76202 1.37004,-6.66715 z m -480.74089,-14.2549 c -3.64179,-1.69578 -5.44357,-3.25045 -6.376,-5.50153 -2.34705,-5.66629 0.47234,-14.85475 7.16939,-23.36519 L 390.16806,402 H 399.58403 409 v 4.94098 c 0,2.71754 -0.37514,5.17284 -0.83365,5.45621 -3.00673,1.85826 -6.41253,9.02444 -7.16232,15.07029 -0.4505,3.63262 -1.36581,7.26351 -2.03401,8.06864 -1.7761,2.14008 -6.76027,1.77483 -12.54631,-0.9194 z M 386.28406,417.5 c -0.28205,-4.4 -0.68635,-8.1875 -0.89844,-8.41667 -0.21209,-0.22916 -0.33387,5.17084 -0.27062,12 0.0832,8.98684 0.33141,11.31176 0.89844,8.41667 0.4309,-2.2 0.55268,-7.6 0.27062,-12 z M 832.5567,434.77749 C 831.70052,433.55512 831,430.61566 831,428.24538 c 0,-5.58888 -1.9305,-9.95486 -6.19575,-14.01223 -3.12993,-2.97737 -3.38417,-3.64194 -2.86924,-7.5 L 822.5,402.5 l 9.37792,-0.28922 C 845.24942,401.7984 845,401.45685 845,420.17974 v 14.86976 l -2.5651,0.97525 c -4.35563,1.65601 -8.18317,1.17273 -9.8782,-1.24726 z m 13.46554,-14.02749 0.0222,-13.25 1.95566,2.5 c 3.09006,3.95017 5.30499,11.68849 4.67978,16.34981 -0.51289,3.82382 -3.40919,7.65019 -5.79069,7.65019 -0.48907,0 -0.87921,-5.9625 -0.86698,-13.25 z M 702,430.06167 c 0,-2.69394 1.54253,-3.98308 18.54652,-15.5 C 732.76434,406.28647 739.9995,402 741.74947,402 h 2.65643 l -3.95295,4.08415 c -2.17412,2.24629 -6.68105,6.26788 -10.01539,8.93687 C 724.10611,420.08904 704.28522,433 702.83623,433 702.3763,433 702,431.67775 702,430.06167 Z m 0,-17.98607 c 0,-6.57728 0.36446,-9.27823 1.30045,-9.6374 0.71525,-0.27447 7.33163,-0.37284 14.70306,-0.21861 l 13.40261,0.28041 -13.16606,8.76719 c -7.24134,4.82195 -13.85772,9.0326 -14.70307,9.35699 C 702.22344,421.12824 702,419.88552 702,412.0756 Z m -187.76267,-0.48468 c -6.74446,-4.55561 -12.57064,-8.5909 -12.94706,-8.96732 -0.37642,-0.37642 5.293,-0.55822 12.59871,-0.404 l 13.28311,0.2804 0.16396,8.75035 c 0.0902,4.81269 -0.0611,8.72181 -0.33605,8.68692 -0.275,-0.0349 -6.0182,-3.79075 -12.76267,-8.34635 z M 410.01365,408.25 c 0.04,-5.12149 1.03216,-6.14124 6.34026,-6.51636 l 5.14609,-0.36368 -5.23095,-0.18498 c -6.15792,-0.21776 -6.64371,-1.11965 -6.1039,-11.33211 L 410.5,383.518 l 5.47876,-3.27274 c 11.15893,-6.6658 24.06592,-9.70574 31.20505,-7.34961 7.69198,2.53858 13.59419,11.56451 14.56528,22.2739 l 0.53467,5.89638 -11.84845,-0.28297 c -11.20269,-0.26754 -11.87805,-0.40101 -12.39187,-2.44903 -0.54328,-2.16543 -0.5453,-2.16519 -6.82787,0.78774 -3.45644,1.62459 -6.78847,2.64229 -7.40451,2.26156 -0.6485,-0.4008 -0.84269,-0.24343 -0.46124,0.37377 0.38159,0.61743 -2.04142,2.5761 -5.75798,4.65451 -7.38892,4.13213 -7.59647,4.18248 -7.57819,1.83849 z M 813.5,405.96938 l -7,-3.94585 7.25,-0.0118 L 821,402 v 4 c 0,2.2 -0.1125,3.98093 -0.25,3.95762 -0.1375,-0.0233 -3.4,-1.81802 -7.25,-3.98824 z m 45.20629,-4.70961 c -13.09092,-0.35963 -13.03225,-0.32556 -12.51938,-7.27067 l 0.31309,-4.2397 4.78729,3.96467 c 3.40579,2.82057 5.80036,4.00276 8.29788,4.09665 l 3.51059,0.13198 -2.29788,-4.17403 c -1.26383,-2.29572 -5.12998,-7.19582 -8.59142,-10.88911 l -6.29355,-6.71508 0.29355,-7.76819 0.29354,-7.7682 9.30784,7.81415 C 865.76421,376.80085 883,396.39752 883,399.35906 c 0,0.54116 -5.0904,1.55935 -10,2.00022 -1.375,0.12347 -7.80717,0.0787 -14.29371,-0.0995 z m -544.99892,-3.75974 c 1.53595,-1.92498 3.0455,-3.49998 3.35457,-3.5 C 317.69768,394 322,399.62786 322,400.45951 322,400.75678 319.50582,401 316.45737,401 h -5.54263 z m 7.38793,-0.53106 -3.23942,-4.03103 4.96436,-5.71897 c 8.5165,-9.81105 34.32084,-34.5462 42.26878,-40.51742 7.3171,-5.49726 7.80978,-5.70155 13.75,-5.70155 H 385 v 7.88499 c 0,7.25282 -0.19538,8.01301 -2.43701,9.48178 -10.90176,7.14311 -27.06417,23.60611 -35.22805,35.88323 l -4.48853,6.75 h -9.25584 -9.25584 z m 76.78591,-3.046 C 409.06319,383.32902 409,383.33447 409,392.96482 V 401 l -9.25,-0.042 -9.25,-0.042 z m 68.24314,-2e-5 c -0.64281,-3.89238 -2.2488,-9.20844 -3.56887,-11.81346 -2.58278,-5.09688 -9.10128,-11.60611 -13.17286,-13.15412 -6.6972,-2.54627 -20.061,-0.15685 -31.58745,5.64778 -3.78289,1.90503 -7.37888,3.15413 -7.99109,2.77577 -0.62673,-0.38735 -0.83502,-0.23799 -0.47668,0.34181 0.35003,0.56636 -2.68493,3.57369 -6.74437,6.68297 -4.05943,3.10927 -9.23555,7.66541 -11.5025,10.12476 -2.26695,2.45935 -4.31163,4.47154 -4.54375,4.47154 -0.23211,0 -0.26209,-2.31304 -0.0666,-5.14009 0.34955,-5.05517 0.46011,-5.21334 6.69263,-9.57437 7.94369,-5.55839 24.00321,-13.35631 33.8372,-16.43013 5.38592,-1.68348 9.89596,-2.34584 16,-2.34984 7.46526,-0.005 9.06606,0.32719 13.14998,2.72797 2.56685,1.50895 7.57396,6.2392 11.17688,10.55888 5.54708,6.65059 14.10907,14.62429 22.17314,20.64961 1.94447,1.45287 1.92595,1.49525 -0.66706,1.52617 -1.93332,0.023 -3.64741,-1.13745 -6.23043,-4.2182 l -3.56337,-4.25 -0.0196,4.25 L 479,401 h -5.85345 -5.85345 z M 487.5,392.10934 c -6.05,-4.87038 -14.02571,-12.47841 -17.7238,-16.90673 -5.41322,-6.48212 -7.99549,-8.67754 -13.24812,-11.2634 -6.25584,-3.07974 -6.90508,-3.19167 -15.77621,-2.71981 -6.9763,0.37107 -11.46549,1.2815 -18.25187,3.70158 -13.18445,4.70169 -12.5,4.57298 -12.5,2.35064 0,-2.71318 1.65366,-3.94366 16.5,-12.27755 7.15,-4.01361 15.24399,-8.8042 17.98665,-10.64577 L 449.4733,341 h 37.43461 c 31.02799,0 37.7048,0.24433 39.01335,1.42764 1.38112,1.24893 1.54369,5.00419 1.29876,30 L 526.94005,401 512.72002,400.98229 498.5,400.96458 Z M 529,372.88499 v -28.11501 l 2.75,1.80872 c 1.5125,0.9948 8.89554,5.74216 16.40677,10.54969 23.45017,15.00921 30.50816,20.51443 33.42565,26.07195 0.85981,1.63785 1.41758,5.67088 1.41758,10.25 V 401 H 556 529 Z M 587.99023,394.25 c -0.0128,-8.84878 -2.95182,-15.23196 -9.88225,-21.46301 -2.85829,-2.56985 -14.50211,-10.66072 -25.87516,-17.97972 L 531.55455,341.5 l 11.65423,-0.28114 11.65423,-0.28115 6.81733,4.17267 c 20.64357,12.63526 33.75048,23.01373 37.09875,29.37599 1.0889,2.06908 1.72412,6.69638 2.0267,14.76363 L 601.24651,401 H 594.62325 588 Z m 17.00419,-4 c -0.003,-5.9125 -0.46902,-12.4187 -1.03546,-14.45822 -1.9827,-7.13889 -13.96269,-18.01191 -32.20896,-29.23278 -4.2625,-2.62131 -7.75,-4.95062 -7.75,-5.17625 0,-0.22564 11.25,-0.37313 25,-0.32776 l 25,0.0825 v 4.49079 4.49079 l -5.0055,-4.2207 c -2.75302,-2.32138 -5.23995,-3.98624 -5.5265,-3.69968 -0.28656,0.28656 1.96591,2.39866 5.00549,4.69357 L 614,351.06479 V 376.03239 401 h -4.5 -4.5 z m 10.92225,10.33491 c -0.22917,-0.22829 -0.28858,-11.25432 -0.13203,-24.50227 l 0.28463,-24.08719 7.33434,-5.52027 7.33435,-5.52027 18.88102,0.27254 L 668.5,341.5 659,347.44421 c -18.38502,11.50362 -28.97703,21.21212 -30.96968,28.38643 -0.56054,2.01815 -1.02168,8.50686 -1.02474,14.41936 L 627,401 h -5.33333 c -2.93334,0 -5.52084,-0.18679 -5.75,-0.41509 z m 15.29285,-11.3383 c 0.32337,-7.85164 1.00083,-12.75269 2.04072,-14.76363 2.58722,-5.00313 11.88237,-12.98363 25.42102,-21.82562 18.68502,-12.20305 17.52473,-11.76877 30.56525,-11.43999 l 11.20964,0.28263 -20.47307,13.20166 c -31.28725,20.17495 -34.90271,24.07153 -35.76723,38.54834 l -0.46282,7.75 h -6.50878 -6.50879 z M 649,393.15004 c 0,-7.13658 0.27285,-8.22662 3.00236,-11.99459 3.63999,-5.02486 12.75432,-11.86363 33.40428,-25.06424 L 701,346.12305 V 373.56152 401 h -26 -26 z m 53,-20.08195 v -27.9319 l 2.90437,-2.0681 C 707.71562,341.0663 709.00287,341 745.05448,341 h 37.24574 l 7.59989,4.84894 c 4.17994,2.66692 12.72892,7.71023 18.99774,11.20737 6.48119,3.61561 11.60006,7.13171 11.86663,8.15106 0.25783,0.98594 0.89286,1.79263 1.41117,1.79263 0.51831,0 0.60579,-0.54462 0.19439,-1.21027 -2.36679,-3.82955 19.1158,11.87986 25.12996,18.37659 2.30966,2.49499 2.70912,3.16154 0.94528,1.57732 -1.68009,-1.509 -3.32237,-2.74364 -3.64951,-2.74364 -0.32714,0 -3.00251,-1.62298 -5.94528,-3.60662 -2.94277,-1.98364 -7.95518,-4.92379 -11.13869,-6.53368 -3.18351,-1.60988 -5.58898,-3.2494 -5.34549,-3.64338 0.24349,-0.39398 -0.52682,-0.77642 -1.7118,-0.84987 C 819.46953,368.293 814.45,366.734 809.5,364.90201 c -8.04095,-2.97596 -10.11889,-3.33469 -19.5,-3.36646 -9.50584,-0.0322 -10.98284,0.21921 -15.59964,2.6551 -3.12951,1.65118 -7.14119,5.12813 -10.38412,9 -6.89466,8.2318 -13.7009,14.61354 -23.35283,21.89632 L 732.82681,401 H 717.41341 702 Z m 39.55,27.08873 c 0.5225,-0.46375 4.16084,-3.3977 8.08521,-6.51989 3.92436,-3.12219 10.56629,-9.71087 14.75984,-14.64152 4.66686,-5.48714 9.24141,-9.78962 11.7924,-11.09104 8.50483,-4.33884 21.23428,-3.34429 37.31255,2.91524 5.59137,2.17681 7.06724,3.19589 7.33415,5.06418 0.18378,1.28644 -0.0412,2.15615 -0.5,1.93271 -0.45878,-0.22345 -3.8634,-1.88712 -7.56581,-3.69706 -12.35118,-6.0379 -24.52337,-7.8039 -31.068,-4.50749 -9.2733,4.6708 -13.74874,12.30943 -16.193,27.63805 l -0.59797,3.75 h -5.89181 -5.89182 l 0.56797,-3.5 c 0.31239,-1.925 0.14737,-3.5 -0.3667,-3.5 -0.51407,0 -2.46123,1.575 -4.32701,3.5 -2.09826,2.16486 -4.34747,3.5 -5.89617,3.5 -1.44323,0 -2.10142,-0.35716 -1.55383,-0.84318 z M 770,397.11483 c 0,-9.33102 6.59259,-20.79318 13.65718,-23.74495 6.73831,-2.81545 18.51653,-0.63854 29.92286,5.53049 l 6.91996,3.7426 0.28753,9.17852 0.28752,9.17851 -8.28752,-0.01 c -6.67437,-0.008 -9.30813,-0.48493 -13.53081,-2.45088 l -5.24327,-2.44111 -0.61513,2.45088 C 792.7905,400.97086 792.64775,401 781.39159,401 H 770 Z m 52.66667,3.2185 C 821.62349,399.29015 821.88576,385 822.94808,385 c 1.14446,0 11.39558,8.52162 15.48901,12.87581 L 841.37418,401 h -9.02042 c -4.96124,0 -9.32043,-0.3 -9.68709,-0.66667 z m 61.93316,-6.18316 C 876.83743,382.47385 861.98414,367.15179 850.25,358.71624 L 846,355.66096 V 348.33048 341 h 6.76076 6.76076 l 8.98924,7.13058 c 8.0787,6.4083 44.48924,42.29031 44.48924,43.84344 0,0.34759 -1.38893,2.52063 -3.08651,4.82898 L 906.82698,401 h -8.8367 -8.83669 z M 909,400.40437 c 0,-0.46482 2.35851,-4.17795 4.60496,-7.24984 0.35357,-0.48348 6.32986,6.17792 6.36573,7.09547 0.0161,0.4125 -2.44569,0.75 -5.47069,0.75 -3.025,0 -5.5,-0.26803 -5.5,-0.59563 z m -67.24304,-4.83089 c -1.50868,-1.89705 -6.57118,-6.49277 -11.25,-10.21271 C 825.49109,381.37286 822,377.85912 822,376.79862 822,375.80938 822.37547,375 822.83437,375 c 0.86073,0 16.12796,9.23366 20.06207,12.13358 1.87506,1.38216 2.16901,2.4228 1.90986,6.76134 L 844.5,399.02267 Z M 312.5,385.34752 c -2.2,-3.08515 -10.4258,-14.21295 -18.27956,-24.72844 L 279.94088,341.5 l 22.52956,-0.26877 c 12.39126,-0.14783 32.67021,-0.14783 45.06435,0 l 22.53478,0.26877 -6.28478,4.46497 c -3.45664,2.45574 -15.36376,13.59324 -26.46029,24.75 -11.09652,11.15677 -20.32152,20.27533 -20.5,20.26346 -0.17847,-0.0119 -2.1245,-2.54577 -4.3245,-5.63091 z m 581,-14.80264 c -11,-11.12964 -22.85709,-22.33028 -26.34908,-24.8903 L 860.80183,341 h 45.07914 45.07914 l -13.23006,17.8167 c -7.27653,9.79919 -15.48005,21.02969 -18.23005,24.95668 -2.75,3.92699 -5.225,7.1101 -5.5,7.0736 -0.275,-0.0365 -9.5,-9.17246 -20.5,-20.3021 z m -507.57801,12.04764 c 4.44176,-4.53892 18.19709,-14.93351 21.37602,-16.15338 1.30628,-0.50127 1.70144,-0.10512 1.69961,1.70387 -0.002,1.85563 -1.22497,2.99156 -5.75,5.3402 -3.16119,1.64077 -9.34762,5.3783 -13.74762,8.30562 l -8,5.32241 z M 843.15353,374.6918 C 840.80584,371.85114 822.02426,359.58854 807,351.08694 c -7.975,-4.51272 -14.9275,-8.62839 -15.45,-9.14594 -0.59424,-0.58861 2.58888,-0.92596 8.5,-0.90084 7.66184,0.0326 10.49073,0.48797 14.95,2.40675 l 5.5,2.36658 0.5,6.34326 c 0.45616,5.78708 0.56528,6.03638 1.24457,2.84325 0.40952,-1.925 0.54786,-4.5125 0.30742,-5.75 -0.24043,-1.2375 -0.16409,-2.25 0.16966,-2.25 1.07455,0 16.90381,9.12605 19.68542,11.34925 2.56924,2.05345 2.67745,2.50862 2.39195,10.06125 -0.25682,6.79425 -0.48902,7.6806 -1.64549,6.2813 z M 410,353.02062 v -6.14605 l 6.47804,-2.93729 c 5.69315,-2.58139 7.60145,-2.93459 15.75,-2.91504 l 9.27196,0.0222 -2.5,1.9297 c -2.16898,1.67418 -25.69531,14.94355 -28.11801,15.85916 C 410.3969,359.01667 410,356.40094 410,353.02062 Z m -23.60699,0.39759 c 0.33385,-0.86998 0.60699,-4.01998 0.60699,-7 V 341 h 11 c 10.10187,0 13.78816,0.9803 9.18279,2.44199 -0.99947,0.31721 -5.99848,3.04754 -11.10891,6.06738 -5.11043,3.01985 -9.51583,5.49063 -9.78978,5.49063 -0.27394,0 -0.22493,-0.7118 0.10891,-1.58179 z m 454.61127,-1.05068 c -1.92265,-1.32019 -7.09765,-4.30546 -11.5,-6.63393 L 821.5,341.5 l 11.38267,-0.28399 c 6.26048,-0.1562 11.56975,-0.0969 11.79839,0.13172 0.22864,0.22864 0.28144,3.3417 0.11733,6.91792 L 844.5,354.76786 Z M 616,346.18709 V 341 h 6.07673 6.07672 l -3.32672,2.68298 c -1.8297,1.47564 -4.56423,3.80983 -6.07673,5.18709 l -2.75,2.50411 z m -204.77177,-6.48445 c -0.51593,-0.66145 -1.0318,-5.98234 -1.14639,-11.8242 -0.24275,-12.37608 -1.71835,-10.36376 16.06084,-21.90258 11.92192,-7.7374 16.75684,-12.68766 20.97551,-21.47586 2.39885,-4.99719 2.88036,-7.27769 2.88102,-13.64466 0.001,-9.84885 -1.87992,-15.8259 -12.52131,-39.78896 l -8.51894,-19.18358 0.27052,-20.05977 0.27052,-20.05977 9,6.99493 c 9.84328,7.65034 21.99552,19.82014 30.69745,30.74181 6.27256,7.87261 18.80255,26.87337 18.80255,28.51261 0,0.58898 -1.93545,4.3772 -4.30101,8.41828 l -4.30101,7.34742 -2.88195,-5.50445 c -4.31287,-8.23747 -10.66854,-16.00101 -19.1797,-23.42825 -7.24709,-6.32416 -19.82505,-14.37614 -24.27448,-15.53969 -3.45239,-0.90282 -2.31822,1.3555 2.68815,5.35254 20.64246,16.48077 29.56914,27.88197 34.74228,44.37299 l 1.73518,5.53145 -21.83034,34.86008 c -18.68785,29.84196 -22.31011,35.06054 -25.16326,36.25267 -11.23009,4.69223 -13.07336,5.22222 -14.00563,4.02699 z M 818,340.24299 c -0.825,-0.26791 -5.18497,-2.04876 -9.68881,-3.95743 l -8.18882,-3.47033 -17.258,-27.65761 C 773.37247,289.94593 764.1798,275.25 762.43621,272.5 c -3.16586,-4.99325 -3.16825,-5.00743 -1.76937,-10.5 4.36387,-17.1343 14.29295,-30.34276 35.59487,-47.35113 4.42877,-3.53612 5.32204,-5.64887 2.38836,-5.64887 -1.75736,0 -15.85416,9.04946 -22.9106,14.70749 -7.40293,5.93585 -16.20219,16.74844 -20.71826,25.45872 l -3.41964,6.59558 -4.30079,-6.97566 C 744.93535,244.94951 743,241.16204 743,240.36953 c 0,-2.45364 12.0856,-21.04029 20.67354,-31.79417 9.14529,-11.45181 23.94024,-25.91153 33.04918,-32.30034 l 6.02383,-4.22497 0.70126,16.72497 c 0.81945,19.54393 0.38376,22.14896 -5.99698,35.85617 -13.45289,28.89975 -15.86252,36.45366 -15.24056,47.77745 0.46589,8.48236 2.33646,13.47878 7.68402,20.52458 3.43598,4.52716 16.4703,14.13634 24.61191,18.14444 3.57159,1.75829 6.4938,3.38668 6.4938,3.61863 0,0.23196 -0.5625,0.10417 -1.25,-0.28398 -1,-0.56457 -1,-0.43638 0,0.64099 1.3793,1.48601 1.83494,24.49793 0.5,25.25274 -0.4125,0.23324 -1.425,0.20487 -2.25,-0.063 z M 272.20498,330.75 c -3.7802,-5.0875 -20.14017,-27.25 -36.3555,-49.25 -30.64673,-41.57966 -71.10597,-96.33801 -93.46689,-126.5 -7.1356,-9.625 -13.31735,-18.0625 -13.73722,-18.75 -0.60918,-0.99748 25.20792,-1.25 127.79561,-1.25 H 385 l -0.0208,98.25 -0.0208,98.25 -6.4695,4.25 -6.46949,4.25 h -46.47067 -46.47067 z m 102.87835,8.91205 c 0.22917,-0.18587 2.55417,-1.78249 5.16667,-3.54804 L 385,332.90392 V 336.45196 340 h -5.16667 c -2.84166,0 -4.97916,-0.15208 -4.75,-0.33795 z M 387,335.7418 v -4.25819 l 10.12515,-6.49181 c 5.56884,-3.57049 10.51884,-6.6418 11,-6.82513 0.48117,-0.18334 0.87485,4.65416 0.87485,10.75 V 340 h -11 -11 z m 48.33193,-0.22254 c 10.71987,-5.40297 21.0311,-12.9047 27.25927,-19.83192 15.57477,-17.32289 19.2928,-40.78546 10.06273,-63.5008 -1.3826,-3.4026 -2.30124,-6.18654 -2.04141,-6.18654 1.2035,0 6.51387,13.18129 7.99814,19.85281 4.29809,19.3191 -3.28533,42.3234 -20.05175,60.82696 -3.07978,3.39887 -7.78824,7.78637 -10.46323,9.75 -4.66704,3.42592 -5.20179,3.56964 -13.22966,3.55558 L 426.5,339.97069 Z M 452,339.5206 c 0,-0.26368 2.09972,-2.40118 4.66604,-4.75 11.44548,-10.4755 22.55603,-29.2467 25.72842,-43.46801 2.64606,-11.86191 2.16576,-20.5728 -1.91896,-34.80259 -0.38705,-1.34837 0.96408,-4.40289 4.14691,-9.37498 l 4.72102,-7.37497 2.70477,5.37497 c 7.81094,15.52211 14.09834,37.26926 18.9577,65.57183 3.15427,18.37154 3.54468,19.58478 8.22282,25.55315 l 2.93934,3.75 H 487.08403 C 467.78781,340 452,339.78427 452,339.5206 Z m 76.92569,-1.2706 c -0.1225,-2.88477 -0.93102,-6.59111 -1.56831,-7.18928 -0.32856,-0.3084 -0.40875,1.12678 -0.17819,3.18928 0.50042,4.47644 0.0104,4.6215 -3.37794,1 -4.42625,-4.73086 -5.67994,-8.56624 -8.79909,-26.91868 -4.76367,-28.0285 -10.60941,-47.68964 -19.61524,-65.9724 l -3.51759,-7.14109 3.74322,-5.55799 c 2.05877,-3.0569 4.06198,-5.36099 4.45157,-5.12021 0.3896,0.24078 3.42378,5.95537 6.74264,12.69908 9.32447,18.94678 14.1211,35.03765 20.5696,69.00314 1.33051,7.00801 3.2873,14.43301 4.34844,16.5 1.71266,3.33607 6.20326,7.12706 18.308,15.4557 2.38568,1.64146 2.07896,1.69928 -9.2828,1.75 -10.51646,0.0469 -11.7578,-0.13127 -11.82431,-1.69755 z m -0.21843,-16.48834 c -0.23919,-1.24391 -0.44398,-0.46166 -0.45508,1.73834 -0.0111,2.2 0.18461,3.21775 0.4349,2.26166 0.25029,-0.95609 0.25937,-2.75609 0.0202,-4 z m 23.69533,12.65719 c -12.01708,-7.53366 -15.13995,-10.01029 -16.89023,-13.39495 -0.81705,-1.58 -2.62622,-8.86924 -4.02037,-16.19831 C 521.66238,253.15138 511.23976,228.50155 485.90037,197 470.97058,178.4395 452.60008,162.34892 426.10711,144.62754 L 411.71422,135 l 18.32853,0 18.32854,0 5.06435,4.20085 c 27.77063,23.03553 39.38079,34.34961 53.02885,51.67648 6.0877,7.72862 6.49225,8.5417 5.22433,10.5 -6.52151,10.07245 -9.84785,15.79697 -9.42491,16.21991 0.27656,0.27656 2.9868,-3.39596 6.02276,-8.16114 l 5.51994,-8.66396 4.10083,6.36393 c 15.84983,24.59684 29.00438,61.08248 32.14208,89.14976 0.62803,5.61779 1.48025,10.88917 1.89383,11.71417 0.41358,0.825 9.55256,7.125 20.30884,14 10.75628,6.875 21.06233,13.71637 22.90234,15.20304 l 3.34547,2.70305 -18.59741,0.0469 -18.5974,0.047 z m 37.02857,-2.68087 C 582.7933,327.20709 571.89225,320.125 565.2066,316 l -12.15573,-7.5 -0.52389,-4.5 c -4.15969,-35.73012 -15.69647,-69.6287 -32.76052,-96.26044 -2.93734,-4.58427 -4.72974,-8.39288 -4.37944,-9.30572 0.32614,-0.84991 7.50563,-12.43272 15.95442,-25.73957 8.4488,-13.30685 17.26864,-27.23177 19.59964,-30.94427 l 4.2382,-6.75 H 584.58964 614 V 237.5 340 l -6.25,-0.012 c -6.17715,-0.0119 -6.39068,-0.10804 -18.31884,-8.25 z M 616,238.5 c 0,-55.825 -3.4e-4,-101.8375 -7.5e-4,-102.25 -4.1e-4,-0.4125 13.00936,-0.86923 28.9106,-1.01496 l 28.91135,-0.26496 9.75168,15.26496 c 5.36342,8.39573 13.65521,21.33996 18.42619,28.76496 4.77098,7.425 9.73402,15.34916 11.02896,17.60924 l 2.35444,4.10924 -4.58932,7.39076 c -17.34078,27.92603 -27.54377,58.2412 -32.27706,95.90176 -0.51069,4.06331 -1.03585,4.80314 -5.29152,7.4546 -2.59851,1.61897 -13.54036,8.70152 -24.31521,15.739 L 629.31872,340 H 622.65936 616 Z m 19,99.46272 c 1.375,-1.09604 9.475,-6.45552 18,-11.90995 8.525,-5.45443 17.95625,-11.63877 20.95834,-13.74298 l 5.45835,-3.82585 1.31875,-10.49197 c 3.88777,-30.93098 14.36486,-61.16921 30.38203,-87.68644 l 5.14818,-8.52309 4.96292,7.85878 c 2.72961,4.32233 5.50074,8.70382 6.15806,9.73665 1.01533,1.59536 0.13442,4.00242 -5.85557,16 -10.09008,20.20983 -15.03582,36.60404 -20.54407,68.09971 -3.3361,19.07555 -4.3226,20.4477 -22.96347,31.94057 L 670.59197,340 651.54598,339.97776 632.5,339.95553 Z m 45,1.6323 c 0,-0.22274 1.9125,-1.52767 4.25,-2.89984 7.79791,-4.57759 14.55705,-10.66444 16.62123,-14.96803 1.11514,-2.32493 3.2133,-10.75215 4.66257,-18.72715 5.9779,-32.89482 11.31345,-49.67805 22.87334,-71.94918 3.17759,-6.12189 3.0007,-6.17838 8.2203,2.62527 l 2.47597,4.17608 -3.14125,6.2228 c -8.17,16.18468 -14.05322,36.40953 -18.93186,65.08241 -3.15309,18.53148 -5.11815,23.38403 -11.41403,28.18614 C 702.33143,339.84899 701.50435,340 691.06672,340 684.98002,340 680,339.81776 680,339.59502 Z M 713.31516,335.25 c 3.88949,-5.30058 6.02219,-11.86949 7.71079,-23.75 3.1155,-21.91982 9.77743,-46.11342 17.21019,-62.50093 l 3.3629,-7.41442 4.68739,7.52061 4.68739,7.5206 -1.46955,6.93707 c -2.02199,9.54494 -1.85621,18.41052 0.53046,28.36651 3.6457,15.20802 14.59926,33.34664 26.33908,43.61634 L 781.46565,340 h -35.81799 -35.818 z m 68.68675,-0.32807 C 764.61615,320.45335 752,295.82715 752,276.35944 c 0,-6.19047 2.79664,-17.97217 5.54487,-23.35944 4.24554,-8.32242 5.41313,-8.57159 1.91887,-0.40949 -7.83183,18.29405 -6.46871,38.80856 3.61539,54.41062 7.18306,11.11359 17.67679,20.02748 34.1454,29.00477 l 7.27547,3.96597 -8.19808,0.0141 -8.19809,0.0141 z m 40.66887,4.32807 c -0.246,-0.4125 -0.51988,-5.62786 -0.60864,-11.58968 -0.12882,-8.65239 0.10087,-10.68432 1.13824,-10.06974 0.71479,0.42348 5.91212,3.8489 11.54962,7.61205 10.1353,6.76554 10.25,6.88661 10.25,10.81974 V 340 h -10.94098 c -6.01754,0 -11.14225,-0.3375 -11.38824,-0.75 z M 846,336.44346 v -3.55653 l 2.81605,1.66348 c 1.54883,0.91492 3.91133,2.50535 5.25,3.5343 l 2.43395,1.87082 -5.25,0.0222 L 846,340 Z m 6.5,-0.7707 -6,-4.25853 V 233.45712 135.5 l 127.75,-0.2538 c 70.2625,-0.13959 127.75,-0.054 127.75,0.19009 0,0.24414 -10.2631,14.30835 -22.8069,31.2538 C 1043.9636,214.28152 972.40353,311.45003 956.52942,333.25 l -4.91516,6.75 -46.55713,-0.0344 -46.55713,-0.0344 z m -419.9961,-5.3041 c 2.16869,-3.29265 34.73419,-55.19664 37.74633,-60.16136 1.09874,-1.81098 2.20607,-3.08433 2.46074,-2.82967 0.94923,0.94924 0.37295,17.41105 -0.77636,22.17685 -3.95522,16.40101 -17.49677,31.61518 -36.87737,41.43238 l -4.44276,2.25047 z m 355.87441,-4.50807 C 768.5817,312.9463 758.33427,295.67784 759.20182,276.69382 l 0.29818,-6.525 16.93386,27.16559 c 9.31362,14.94107 17.99903,28.62809 19.30089,30.41559 1.30187,1.7875 1.95187,3.25 1.44445,3.25 -0.50743,0 -4.46783,-2.31273 -8.80089,-5.13941 z M 387,232.61501 V 135 h 10.5 10.5 v 88.91821 c 0,48.90502 0.2427,89.55069 0.53934,90.32371 0.48994,1.27676 -3.16215,4.03675 -18.78934,14.19968 l -2.75,1.78842 z m 445.50778,89.82261 C 826.46207,318.34693 822.07457,315 822.75778,315 823.7382,315 824,296.03256 824,225 v -90 h 10.5 10.5 v 97.5 c 0,53.625 -0.3375,97.47193 -0.75,97.43762 -0.4125,-0.0343 -5.6965,-3.4093 -11.74222,-7.5 z M 413,224.98203 v -84.01738 l 13.26193,8.87601 c 26.00504,17.4048 46.29224,36.09579 61.6598,56.80839 12.10988,16.32185 11.65863,14.95361 7.16391,21.72199 l -3.81057,5.73815 -4.79267,-7.68951 c -11.93612,-19.15073 -30.10037,-39.36038 -46.6518,-51.90509 -9.53608,-7.2276 -13.35325,-9.32528 -14.63568,-8.04284 -1.30878,1.30877 -1.48821,41.60596 -0.20435,45.89111 0.67417,2.25017 4.48484,11.30154 8.46817,20.11418 3.98332,8.81263 8.26368,18.94796 9.5119,22.52296 2.72668,7.80947 3.65783,18.00054 2.15282,23.56186 -2.47105,9.13103 -13.15898,20.04931 -27.10367,27.68785 L 413,308.99942 Z m 397.07464,78.88441 c -11.26317,-6.93141 -19.24491,-15.03284 -21.95984,-22.28915 -4.15934,-11.11684 -2.09148,-21.60065 9.0636,-45.95132 C 808.06924,211.85212 808,212.11768 808,194.12386 808,175.49714 807.17951,166 805.57029,166 c -0.62964,0 -4.72804,2.36078 -9.10755,5.24619 -15.99204,10.53622 -41.71209,38.85754 -52.00746,57.26739 -1.9896,3.55774 -3.97,6.6865 -4.4009,6.95281 -0.43089,0.2663 -2.36406,-2.17885 -4.29593,-5.43368 l -3.5125,-5.91787 5.54873,-8.30742 c 17.05646,-25.53647 38.49092,-46.23008 69.18535,-66.79404 L 819,140.96051 v 84.01974 C 819,271.19111 818.86869,309 818.70819,309 c -0.16049,0 -4.04559,-2.3101 -8.63355,-5.13356 z m -86.81398,-93.51846 -6.06179,-9.65202 4.85626,-6.67676 C 733.64249,178.08802 747.129,164.47262 771,144.60656 l 11.5,-9.5706 18.75,-0.018 c 10.3125,-0.01 18.75,0.16426 18.75,0.387 0,0.22274 -2.1375,1.64128 -4.75,3.15231 -8.32909,4.81744 -29.4265,19.98596 -39.3544,28.29486 -15.66877,13.11356 -31.16069,30.44151 -42.37569,47.39785 -2.09169,3.1625 -3.89181,5.75 -4.00027,5.75 -0.10845,0 -2.925,-4.34341 -6.25898,-9.65202 z m -26.88595,-42.56926 c -10.93109,-17.1717 -20.02471,-31.5717 -20.20804,-32 -0.18334,-0.4283 23.21666,-0.7645 52,-0.74712 l 52.33333,0.0316 -2.58476,2.2184 c -1.42161,1.22012 -7.49661,6.22595 -13.5,11.12408 -14.20477,11.58958 -32.32989,29.95126 -40.91869,41.45275 -3.75459,5.02786 -6.92116,9.14157 -7.03683,9.14157 -0.11567,0 -9.15393,-14.04958 -20.08501,-31.22128 z M 510.0794,193.46103 C 498.58017,177.44864 485.6835,164.29836 463.64177,146.11021 L 450.78354,135.5 l 50.76565,-0.25925 c 27.9211,-0.14259 50.94059,-0.0843 51.15441,0.12952 0.21383,0.21383 -5.9942,10.45549 -13.79562,22.75925 -7.80142,12.30376 -16.62446,26.30798 -19.60675,31.12048 -2.9823,4.8125 -5.54382,8.75 -5.69227,8.75 -0.14846,0 -1.73676,-2.04254 -3.52956,-4.53897 z M 387,108.97309 V 83.946175 l 11,9.188114 11,9.188111 V 118.1612 134 H 398 387 Z M 410.76786,133.25 c -0.70397,-1.50778 -0.96872,-29.25 -0.27913,-29.25 0.5273,0 27.54444,21.9231 35.96127,29.18083 0.5225,0.45054 -7.21344,0.81917 -17.19098,0.81917 -9.97754,0 -18.29856,-0.3375 -18.49116,-0.75 z m 145.86658,-0.5 c 1.03041,-1.71172 46.58301,-72.610891 52.04236,-81 C 611.09277,48.0375 613.27885,45 613.53474,45 613.79063,45 614,65.025 614,89.5 V 134 h -29.05902 c -22.98186,0 -28.90165,-0.26141 -28.30654,-1.25 z M 616,89.8 c 0,-25.845222 0.36931,-43.805497 0.88933,-43.25 0.48913,0.5225 12.70813,19.4 27.15333,41.95 14.4452,22.55 26.92176,42.0125 27.72568,43.25 l 1.46168,2.25 H 644.61501 616 Z m 169,43.77683 c 0,-0.23274 8.1,-7.22996 18,-15.54936 l 18,-15.12619 V 118.45064 134 h -18 c -9.9,0 -18,-0.19043 -18,-0.42317 z M 822.99836,133.25 c -9e-4,-0.4125 -0.24881,-7.275 -0.55091,-15.25 -0.41934,-11.07005 -0.24154,-14.88931 0.75164,-16.14579 1.2895,-1.63137 18.1483,-15.751251 20.55091,-17.212173 0.98697,-0.600131 1.25,4.513028 1.25,24.298943 V 134 h -11 c -6.05,0 -11.00074,-0.3375 -11.00164,-0.75 z M 581,793.44098 C 581,757.98962 580.66191,740.09092 580,740.5 578.27735,741.56466 578.92513,847 580.65432,847 580.84445,847 581,822.89844 581,793.44098 Z M 385.68311,840.8125 c -0.31922,-0.79773 -0.55618,-0.56078 -0.60416,0.60417 -0.0434,1.05416 0.19293,1.64479 0.52522,1.3125 0.33229,-0.33229 0.36781,-1.1948 0.0789,-1.91667 z m 0.061,-23.51679 c -0.1879,-4.28764 -0.34279,-1.04571 -0.34419,7.20429 -0.001,8.25 0.15234,11.75807 0.34164,7.79571 0.18931,-3.96237 0.19045,-10.71237 0.003,-15 z M 1030.4338,727.25 c -3.5143,-5.3803 -40.63506,-55.77605 -42.16951,-57.25 -2.06229,-1.98098 2.5548,4.52337 24.68681,34.77757 10.148,13.87234 18.6373,25.22243 18.865,25.22243 0.2276,0 -0.3944,-1.2375 -1.3823,-2.75 z"
       id="path1" />
  </g>
</svg>

